<?xml version="1.0" standalone="no"?>
<!DOCTYPE svg PUBLIC "-//W3C//DTD SVG 1.1//EN" "http://www.w3.org/Graphics/SVG/1.1/DTD/svg11.dtd" >
<svg xmlns="http://www.w3.org/2000/svg">
<metadata></metadata>
<defs>
<font id="ahamonoregular" horiz-adv-x="1159" >
<font-face units-per-em="2048" ascent="1638" descent="-410" />
<missing-glyph horiz-adv-x="500" />
<glyph horiz-adv-x="0" />
<glyph horiz-adv-x="682" />
<glyph unicode=" " />
<glyph unicode="!" d="M408 178q0 74 52.5 126t119.5 52q70 0 121 -53.5t51 -124.5q0 -74 -52.5 -126t-119.5 -52q-73 0 -122.5 54.5t-49.5 123.5zM508 590v852q0 31 20 51t52 20q31 0 51 -19.5t20 -51.5v-852q0 -31 -19.5 -51.5t-51.5 -20.5q-31 0 -51.5 20t-20.5 52z" />
<glyph unicode="&#x22;" d="M365 1098v344q0 31 20 51t51 20t51 -20q21 -21 21 -51v-344q0 -30 -21 -51t-51 -21t-51 21q-20 20 -20 51zM651 1098v344q0 30 21 51q20 20 51 20t51 -20q21 -21 21 -51v-344q0 -30 -21 -51t-51 -21t-51 21t-21 51z" />
<glyph unicode="#" d="M-12 494q0 31 19.5 51t51.5 20h142l114 404h-137q-36 0 -54 20.5t-18 50.5q0 31 19.5 51.5t52.5 20.5h178l99 352q7 25 25.5 38.5t41.5 13.5q29 0 51.5 -19.5t22.5 -50.5q0 -15 -2 -23l-90 -311h325l99 352q14 49 65 49q31 0 54.5 -18t23.5 -49q0 -7 -4 -23l-90 -311h127 q36 0 54 -21t18 -51q0 -31 -19.5 -51t-52.5 -20h-168l-113 -404h162q36 0 54 -20.5t18 -50.5q0 -31 -19.5 -51.5t-52.5 -20.5h-203l-116 -414q-14 -51 -68 -51q-33 0 -54.5 21.5t-21.5 48.5q0 6 4 22l107 373h-324l-116 -414q-14 -51 -68 -51q-34 0 -55 22t-21 48q0 6 4 22 l107 373h-101q-33 0 -52 21.5t-19 50.5zM350 565h324l114 404h-325z" />
<glyph unicode="$" d="M162 455q0 30 22.5 53.5t53.5 23.5q29 0 51 -23t22 -54q0 -109 69 -194.5t165 -100.5v540l-176 142q-67 53 -100 131t-33 162q0 139 86 246.5t223 127.5v97q0 31 19.5 51t51.5 20q31 0 51.5 -19.5t20.5 -51.5v-103q99 -22 180.5 -87.5t120.5 -158.5q14 -29 4 -60t-39 -44 q-34 -14 -58.5 -2.5t-39.5 39.5q-66 118 -168 153v-563l182 -147q119 -99 119 -279q-6 -133 -90 -226t-211 -118v-90q0 -34 -21.5 -53t-50.5 -19q-31 0 -51 20t-20 52v84q-163 19 -273 150t-110 301zM383 1130q0 -103 80 -167l82 -68v457q-74 -19 -118 -84t-44 -138z M688 170q66 23 108.5 71.5t45.5 116.5q0 100 -66 154l-88 72v-414z" />
<glyph unicode="%" d="M18 45q-9 29 13 57l973 1389q22 28 49 31q28 3 51 -13t31 -43q10 -26 -13 -55l-972 -1391q-21 -27 -50 -30q-31 -3 -51 14q-20 11 -31 41zM35 1145v72q0 59 22 114q21 56 62 94q38 41 90 66q58 22 113 22q54 0 112 -22q52 -25 90 -66q41 -38 62 -94q22 -55 22 -114v-72 q0 -60 -22 -115t-62 -92q-38 -41 -90 -66q-58 -22 -112 -22q-55 0 -113 22q-52 25 -90 66q-40 37 -62 92t-22 115zM195 1145q0 -56 38 -94q36 -39 89 -39t92 39q37 40 37 94v72q0 54 -37 94q-39 39 -92 39t-89 -39q-38 -38 -38 -94v-72zM567 295v74q0 57 23 114q21 52 61 95 q45 42 90 61q58 25 113 25t113 -25q45 -19 90 -61q40 -43 61 -95q23 -58 23 -114v-74q0 -57 -23 -115q-20 -50 -61 -94q-45 -42 -90 -61q-58 -25 -113 -25t-113 25q-45 19 -90 61q-41 44 -61 94q-23 58 -23 115zM727 295q0 -55 39 -94q37 -37 88 -37q52 0 92 37q37 40 37 94 v74q0 52 -37 92q-39 39 -92 39q-52 0 -88 -39q-39 -39 -39 -92v-74z" />
<glyph unicode="&#x26;" d="M59 463q0 129 63 236.5t169 166.5q-123 111 -123 279q0 154 108.5 261t266.5 107h342q33 0 54.5 -21.5t21.5 -55.5q0 -36 -23 -57t-53 -21h-342q-93 0 -158.5 -61t-65.5 -152q0 -95 64 -156t160 -61h501q32 0 54 -23t22 -55t-22 -55t-54 -23h-83v-694q0 -36 -23 -57 t-53 -21h-371q-188 0 -321.5 136.5t-133.5 326.5zM211 463q0 -128 91 -217.5t212 -89.5h295v616h-295q-124 0 -213.5 -92t-89.5 -217z" />
<glyph unicode="'" d="M508 1098v344q0 31 20 51t52 20q31 0 51 -20t20 -51v-344q0 -31 -20 -51q-21 -21 -51 -21q-31 0 -52 21q-20 20 -20 51z" />
<glyph unicode="(" d="M281 520q3 762 563 987q15 6 30 6q33 0 57.5 -25t24.5 -56q0 -23 -14.5 -45t-36.5 -31q-458 -185 -461 -836q0 -657 461 -844q21 -8 37 -29t16 -46q0 -34 -23.5 -58t-57.5 -24q-18 0 -33 6q-152 61 -262 158.5t-175 227t-95.5 279.5t-30.5 330z" />
<glyph unicode=")" d="M281 -399q0 25 16 46t37 29q461 187 461 844q-3 651 -461 836q-22 9 -36.5 31t-14.5 45q0 31 24.5 56t57.5 25q15 0 30 -6q560 -225 563 -987q0 -180 -30.5 -330t-95.5 -279.5t-175 -227t-262 -158.5q-15 -6 -33 -6q-34 0 -57.5 24t-23.5 58z" />
<glyph unicode="*" d="M121 1167q0 23 10 50q17 45 57 45q14 0 35 -7l297 -120l-31 307q-3 25 19 47q39 39 72 39q32 0 63 -31q30 -30 27 -53l-31 -309l295 120q32 9 39 9q47 0 63 -70q2 -12 2 -31q0 -42 -28 -67q-13 -10 -29 -13l-305 -63l209 -244q14 -17 14 -39q0 -16 -4 -24 q-18 -70 -86 -70h-16q-39 6 -56 35l-157 274l-158 -274q-21 -35 -80 -35q-66 0 -78 74q-8 38 10 59l209 244l-305 63q-34 6 -49 41q-8 16 -8 43z" />
<glyph unicode="+" d="M16 512q-2 32 19 53t55 21h414v413q0 32 21 53t55 21t54 -20t19 -52v-413l416 -2q31 0 51.5 -21t20.5 -53q0 -34 -21 -55t-53 -21h-414v-413q0 -33 -20.5 -53.5t-52.5 -20.5q-34 -1 -55 19.5t-19 54.5v413l-416 2q-33 -1 -53.5 19.5t-20.5 54.5z" />
<glyph unicode="," d="M399 -377l176 377q-63 3 -107 49.5t-44 112.5q0 67 48 114.5t108 47.5q64 0 108.5 -47.5t44.5 -114.5v-162l-254 -416z" />
<glyph unicode="-" d="M217 512q0 27 19 49q20 23 53 23h581q36 0 52 -23q18 -21 18 -49t-18 -49q-16 -23 -52 -23h-581q-33 0 -53 23q-19 22 -19 49z" />
<glyph unicode="." d="M381 207q0 87 60.5 147t138.5 60q81 0 139.5 -61.5t58.5 -145.5q0 -87 -60.5 -147t-137.5 -60q-84 0 -141.5 64t-57.5 143z" />
<glyph unicode="/" d="M-8 -315q0 10 2 16l6 18l961 1754q11 18 26 28q12 12 35 12q32 0 51 -22q23 -20 23 -49q0 -20 -9 -35l-960 -1755q-20 -39 -59 -39q-32 0 -52 20q-24 21 -24 52z" />
<glyph unicode="0" d="M147 451v614q0 123 59.5 226.5t159 162.5t214.5 59q87 0 168 -34.5t137 -96.5q53 -53 94 -143q33 -91 33 -174v-614q0 -187 -128.5 -319t-303.5 -132q-86 0 -167.5 35.5t-138.5 97.5q-61 61 -94 145t-33 173zM295 451q0 -29 4 -41l481 862q-88 88 -200 88 q-117 0 -201 -87.5t-84 -207.5v-614zM379 242q83 -86 201 -86q116 0 200 87.5t84 207.5v614q0 29 -4 41z" />
<glyph unicode="1" d="M131 78q0 29 22.5 53.5t53.5 24.5h299v1204h-299q-32 0 -54 23t-22 55q0 31 22.5 53t53.5 22h373q29 0 51 -22t22 -53v-1282h299q31 0 53.5 -23.5t22.5 -54.5q0 -32 -22 -55t-54 -23h-745q-32 0 -54 23t-22 55z" />
<glyph unicode="2" d="M121 78q0 140 100 248l545 553q37 37 58.5 90.5t21.5 107.5q0 114 -78.5 197.5t-192.5 83.5q-96 0 -170.5 -60t-93.5 -153q-5 -34 -25.5 -58t-52.5 -24q-30 0 -52.5 20t-22.5 50q0 155 125 267.5t292 112.5q176 0 298 -127.5t122 -308.5q0 -85 -32.5 -167t-90.5 -140 l-546 -553q-26 -29 -41 -63h680q29 0 51 -22.5t22 -53.5q0 -35 -22.5 -56.5t-50.5 -21.5h-770q-30 0 -52 22.5t-22 55.5z" />
<glyph unicode="3" d="M166 432q0 33 21 55.5t53 22.5q30 0 51.5 -23.5t21.5 -54.5q0 -112 78 -194t189 -82q110 0 188 81.5t78 194.5v172q0 113 -78 196t-188 83q-49 0 -95.5 -26.5t-83.5 -52.5t-61 -26q-47 0 -67.5 44.5t10.5 82.5l385 455h-428q-31 0 -52.5 23t-21.5 55q0 30 22 52.5 t52 22.5h589q35 0 55.5 -23.5t20.5 -53.5q0 -32 -18 -50l-299 -350q175 -6 290 -133.5t115 -298.5v-172q0 -174 -120.5 -303t-292.5 -129q-169 0 -291.5 127.5t-122.5 304.5z" />
<glyph unicode="4" d="M63 455q0 21 15 45l655 981q19 32 64 32q31 0 53 -22t22 -53v-906h148q32 0 54 -22.5t22 -54.5q0 -31 -22.5 -53.5t-53.5 -22.5h-148v-301q0 -33 -21.5 -55.5t-53.5 -22.5t-54 23t-22 55v301h-582q-31 0 -53.5 22.5t-22.5 53.5zM283 532h438v654z" />
<glyph unicode="5" d="M166 432q0 35 23 56.5t51 21.5q30 0 51.5 -22.5t21.5 -55.5q0 -111 77.5 -193.5t189.5 -82.5q114 0 190 82.5t76 193.5v146q0 119 -78 198.5t-188 79.5q-42 0 -82 -16t-65.5 -36t-51.5 -36t-43 -16q-30 0 -52 23t-22 54v607q0 36 23 56.5t53 20.5h580q30 0 51.5 -22 t21.5 -55q0 -34 -22.5 -55t-50.5 -21h-506v-387q75 37 166 37q175 0 294 -126.5t119 -305.5v-146q0 -178 -120 -305t-293 -127q-176 0 -295 129t-119 303z" />
<glyph unicode="6" d="M145 451v612q0 121 57.5 224t158 164.5t219.5 61.5q81 0 153.5 -29t122.5 -74t83.5 -94.5t47.5 -96.5q6 -21 6 -35q0 -35 -22 -52.5t-47 -17.5q-14 0 -27 7t-21.5 14.5t-19.5 23.5t-15 23t-13 25l-9 18q-35 66 -100.5 100.5t-138.5 34.5q-115 0 -200 -88.5t-85 -208.5 v-150q120 111 285 111q180 0 307 -133.5t127 -317.5v-122q0 -119 -57 -222.5t-157.5 -166t-219.5 -62.5q-118 0 -218.5 61t-158.5 165t-58 225zM295 451q0 -121 83.5 -208t201.5 -87t201 87t83 208v122q0 122 -82.5 209.5t-201.5 87.5q-121 0 -203 -89.5t-82 -207.5v-122z " />
<glyph unicode="7" d="M143 1438q0 35 22.5 55t51.5 20h725q35 0 53.5 -18t18.5 -49q0 -22 -19 -70l-551 -1298q-17 -40 -34.5 -59t-47.5 -19t-52.5 21.5t-22.5 50.5q0 20 22 73l518 1215h-610q-31 0 -52.5 23t-21.5 55z" />
<glyph unicode="8" d="M145 451q0 116 51.5 217t147.5 163q-66 54 -103.5 134t-37.5 168q0 158 112 269t265 111q155 0 265.5 -113t110.5 -270q0 -89 -38 -168t-103 -131q98 -62 148.5 -164.5t50.5 -215.5q0 -189 -126 -320t-308 -131q-181 0 -308 130.5t-127 320.5zM295 451q0 -125 83.5 -210 t201.5 -85t201 84.5t83 210.5t-83.5 211.5t-202.5 85.5t-201 -86.5t-82 -210.5zM352 1128q0 -95 69.5 -161t160.5 -66q93 0 159 70.5t66 163.5q0 94 -69 159.5t-160 65.5q-92 0 -159 -69t-67 -163z" />
<glyph unicode="9" d="M145 940v123q0 89 34 171.5t91.5 143.5t139 98t170.5 37q118 0 218 -61t158 -164.5t58 -224.5v-612q0 -185 -126.5 -318t-307.5 -133q-81 0 -154 29t-123 74.5t-83.5 95t-47.5 96.5q-6 21 -6 35q0 34 22.5 51.5t47.5 17.5q14 0 27 -6.5t21.5 -14.5t19 -23t15 -23 t12.5 -25t9 -18q35 -66 101 -100.5t139 -34.5q115 0 199.5 88.5t84.5 208.5v149q-120 -111 -284 -111q-180 0 -307.5 133.5t-127.5 317.5zM295 940q0 -122 83 -209.5t202 -87.5q121 0 202.5 89.5t81.5 207.5v123q0 121 -83 208t-201 87t-201.5 -87t-83.5 -208v-123z" />
<glyph unicode=":" d="M373 178q0 74 52.5 126t119.5 52q70 0 121 -53.5t51 -124.5q0 -74 -52.5 -126t-119.5 -52q-73 0 -122.5 54.5t-49.5 123.5zM373 834q0 74 52.5 126t119.5 52q70 0 121 -53.5t51 -124.5q0 -74 -52.5 -126.5t-119.5 -52.5q-72 0 -122 55t-50 124z" />
<glyph unicode=";" d="M365 -377l176 377q-63 3 -107.5 49.5t-44.5 112.5q0 67 48 114.5t108 47.5q64 0 108.5 -47.5t44.5 -114.5v-162l-254 -416zM373 834q0 74 52.5 126t119.5 52q70 0 121 -53.5t51 -124.5q0 -74 -52.5 -126.5t-119.5 -52.5q-72 0 -122 55t-50 124z" />
<glyph unicode="&#x3c;" d="M168 504q0 20 10 37q7 12 27 28l659 420q31 17 58 6q31 -6 47 -32q16 -29 10 -58q-6 -34 -33 -49l-555 -352l555 -354q23 -14 33 -48q6 -30 -10 -59q-21 -37 -64 -37q-23 0 -41 12l-659 420q-37 21 -37 66z" />
<glyph unicode="=" d="M176 348q0 27 19 49q20 23 53 23h663q36 0 52 -23q18 -21 18 -49t-18 -49q-16 -23 -52 -23h-663q-33 0 -53 23q-19 22 -19 49zM176 676q0 27 19 49q20 23 53 23h663q36 0 52 -23q18 -21 18 -49t-18 -49q-16 -23 -52 -23h-663q-33 0 -53 23q-19 22 -19 49z" />
<glyph unicode="&#x3e;" d="M172 102q10 34 33 48l555 354l-555 352q-27 15 -33 49q-8 28 8 58q16 26 47 32q27 11 58 -6l661 -420q20 -16 25 -28q10 -12 10 -37q0 -45 -37 -66l-659 -420q-18 -12 -41 -12q-43 0 -64 37q-17 30 -8 59z" />
<glyph unicode="?" d="M127 1063q0 186 128.5 318t309.5 132q187 0 313 -114t126 -295q0 -170 -86.5 -253.5t-276.5 -90.5v-197q0 -40 -20.5 -61t-49.5 -21q-33 0 -57.5 22.5t-24.5 59.5v266q0 78 97 78q147 0 206.5 46.5t59.5 150.5q0 118 -83 186t-204 68q-105 0 -195.5 -80t-90.5 -170 q0 -54 -24.5 -82.5t-57.5 -28.5q-27 0 -48.5 19t-21.5 47zM418 162q0 69 45 115.5t108 46.5t109.5 -48t46.5 -114q0 -71 -43.5 -116.5t-110.5 -45.5q-65 0 -110 49t-45 113z" />
<glyph unicode="@" d="M84 500q0 209 149 352q147 141 345 141h26q190 0 336 -155q137 -143 137 -355q0 -99 -69 -168t-168 -69h-70q-41 0 -55 39q-56 -39 -150 -39q-89 0 -162 73t-73 177q0 105 73 178q74 74 162 74q94 0 150 -39q14 39 47 39q34 0 53 -19q16 -16 16 -43v-319h9q48 0 82 34 t34 82q0 157 -108 271q-103 118 -250 118h-20h-19q-131 0 -242 -108q-112 -106 -112 -268q0 -158 106 -267q111 -108 269 -108h438q24 0 43 -19q16 -16 16 -41q0 -26 -16 -45q-19 -16 -43 -16h-438q-206 0 -351 145t-145 355zM449 496q0 -55 38 -90q35 -41 88 -41h3 q56 3 94 38q39 36 39 93q0 53 -39 92t-94 39t-91 -39q-38 -38 -38 -92z" />
<glyph unicode="A" d="M2 78l508 1388q18 47 70 47q54 0 69 -47l508 -1388q0 -36 -23 -57t-53 -21q-49 0 -69 49l-127 342h-611l-127 -342q-21 -49 -69 -49q-32 0 -54 22t-22 56zM332 545h495l-247 672z" />
<glyph unicode="B" d="M143 78v1358q0 31 22.5 54t51.5 23h391q151 0 258 -111.5t107 -266.5q0 -188 -203 -283q307 -111 307 -397q0 -188 -129.5 -321.5t-308.5 -133.5h-422q-30 0 -52 23.5t-22 54.5zM293 154h346q123 0 206 90.5t83 210.5q0 124 -84 212.5t-205 88.5h-346v-602zM293 909h315 q94 0 155.5 67.5t61.5 158.5q0 90 -63.5 156.5t-153.5 66.5h-315v-449z" />
<glyph unicode="C" d="M172 446v621q0 120 56.5 222.5t155 163t216.5 60.5t216.5 -60.5t155 -163t56.5 -222.5q0 -35 -22.5 -56.5t-51.5 -21.5q-31 0 -52 23t-21 55q0 119 -82.5 205t-198.5 86q-119 0 -200 -87t-81 -204v-621q0 -119 82.5 -205.5t198.5 -86.5q120 0 200.5 87t80.5 205 q0 35 22.5 55.5t50.5 20.5q31 0 52.5 -22t21.5 -54q0 -119 -57 -222t-155.5 -163.5t-215.5 -60.5q-118 0 -216.5 60.5t-155 163t-56.5 222.5z" />
<glyph unicode="D" d="M176 78v1358q0 35 22 56t52 21h354q118 0 216.5 -60.5t155 -163t56.5 -222.5v-621q0 -119 -57 -222t-155.5 -163.5t-215.5 -60.5h-354q-31 0 -52.5 23t-21.5 55zM324 154h280q115 0 198 87t83 205v621q0 120 -84.5 206.5t-196.5 86.5h-280v-1206z" />
<glyph unicode="E" d="M164 78v1358q0 31 21 54t51 23h749q30 0 51 -23t21 -56q0 -34 -22 -55t-50 -21h-676v-524h525q30 0 51.5 -22.5t21.5 -55.5q0 -34 -22.5 -55t-50.5 -21h-525v-526h676q29 0 50.5 -23t21.5 -55q0 -33 -22.5 -54.5t-49.5 -21.5h-749q-30 0 -51 22.5t-21 55.5z" />
<glyph unicode="F" d="M225 78v1358q0 31 21 54t51 23h709q29 0 51 -23t22 -54q0 -34 -22.5 -56t-50.5 -22h-635v-524h483q30 0 52 -22.5t22 -55.5t-23 -54.5t-51 -21.5h-483v-602q0 -35 -23 -56.5t-51 -21.5q-30 0 -51 22.5t-21 55.5z" />
<glyph unicode="G" d="M152 446v621q0 122 58.5 225t157 162t212.5 59q180 0 304 -122t124 -304q0 -35 -22 -56t-52 -21q-31 0 -52.5 22.5t-21.5 54.5q0 115 -80.5 193t-199.5 78t-200 -87t-81 -204v-621q0 -120 82 -206t199 -86q118 0 199 85.5t81 206.5v152h-239q-29 0 -51.5 22.5t-22.5 53.5 q0 35 23 56.5t51 21.5h313q31 0 52.5 -23t21.5 -55v-228q0 -120 -56.5 -222.5t-155 -163t-216.5 -60.5t-216.5 60.5t-155 163t-56.5 222.5z" />
<glyph unicode="H" d="M164 78v1358q0 31 21 54t53 23q29 0 51 -23t22 -54v-602h537v602q0 31 22.5 54t51.5 23q32 0 52.5 -22.5t20.5 -54.5v-1358q0 -35 -22 -56.5t-51 -21.5q-30 0 -52 23.5t-22 54.5v602h-537v-602q0 -34 -22.5 -56t-50.5 -22q-31 0 -52.5 23t-21.5 55z" />
<glyph unicode="I" d="M184 78q0 35 22.5 55.5t51.5 20.5h248v1206h-248q-31 0 -52.5 23t-21.5 55q0 35 22.5 55t51.5 20h643q31 0 52.5 -21.5t21.5 -53.5q0 -35 -22.5 -56.5t-51.5 -21.5h-248v-1206h248q31 0 52.5 -22t21.5 -54q0 -33 -21 -55.5t-53 -22.5h-643q-31 0 -52.5 23t-21.5 55z" />
<glyph unicode="J" d="M150 446q0 31 22 53.5t53 22.5q29 0 51.5 -22.5t22.5 -53.5q0 -118 83 -205t198 -87q118 0 199 88t81 204v914h-561q-30 0 -52 22.5t-22 55.5t23 54t51 21h635q31 0 53.5 -22t22.5 -53v-992q0 -119 -57 -222t-156 -163.5t-217 -60.5t-217 60.5t-156 163.5t-57 222z" />
<glyph unicode="K" d="M182 78v1360q0 33 23 54t51 21q31 0 53.5 -22t22.5 -53v-742l483 783q21 34 64 34q30 0 51.5 -23t21.5 -54q0 -21 -12 -39l-309 -502l459 -778q10 -23 10 -43q0 -32 -22 -53t-52 -21q-42 0 -63 37l-422 713l-209 -340v-332q0 -32 -22 -55t-54 -23q-30 0 -52 22.5 t-22 55.5z" />
<glyph unicode="L" d="M195 78v1360q0 31 22 53t51 22q32 0 54 -22t22 -53v-1284h670q28 0 51 -23q22 -22 22 -53q0 -33 -22 -55q-23 -23 -51 -23h-746q-28 0 -51 23q-22 22 -22 55z" />
<glyph unicode="M" d="M86 78v1360q0 33 23.5 54t50.5 21q46 0 67 -43l353 -745l352 745q21 43 67 43q29 0 51.5 -22.5t22.5 -52.5v-1360q0 -35 -22.5 -56.5t-51.5 -21.5q-32 0 -53.5 22.5t-21.5 55.5v1024l-277 -586q-21 -43 -67 -43q-47 0 -68 43l-276 586v-1024q0 -32 -22 -55t-54 -23 q-31 0 -52.5 23t-21.5 55z" />
<glyph unicode="N" d="M133 78v1360q0 33 23 54t51 21q43 0 63 -38l609 -1106v1069q0 33 22.5 54t50.5 21q30 0 52 -22.5t22 -52.5v-1360q0 -35 -23 -56.5t-51 -21.5q-46 0 -63 39l-608 1106v-1067q0 -35 -23 -56.5t-51 -21.5q-30 0 -52 22.5t-22 55.5z" />
<glyph unicode="O" d="M150 440v627q0 123 58 225.5t157 161.5t215 59q179 0 304.5 -131t125.5 -315v-627q0 -184 -125.5 -315t-304.5 -131q-180 0 -305 131t-125 315zM299 440q0 -120 84.5 -206.5t196.5 -86.5q118 0 199 88.5t81 204.5v627q0 119 -82 205t-198 86q-119 0 -200 -87t-81 -204 v-627z" />
<glyph unicode="P" d="M176 78v1358q0 31 22.5 54t51.5 23h328q122 0 225 -63t162 -170t59 -231q0 -126 -60.5 -233.5t-163.5 -169.5t-222 -62h-252v-506q0 -32 -22 -55t-54 -23q-30 0 -52 23.5t-22 54.5zM326 739h252q120 0 208 91.5t88 218.5q0 125 -87 217t-209 92h-252v-619z" />
<glyph unicode="Q" d="M143 449v616q0 184 126 316t306 132q88 0 167.5 -36t137.5 -96.5t92 -143t34 -172.5v-616q0 -132 -72 -248l76 -84q14 -17 14 -41q0 -33 -24.5 -54.5t-51.5 -21.5q-19 0 -39 14l-80 74q-113 -88 -254 -88q-180 0 -306 132.5t-126 316.5zM293 449q0 -120 82 -207.5 t200 -87.5q82 0 150 45l-203 209q-22 22 -22 55t21.5 55.5t53.5 22.5t52 -23l198 -207q33 67 33 138v616q0 120 -85.5 206.5t-197.5 86.5q-120 0 -201 -88.5t-81 -204.5v-616z" />
<glyph unicode="R" d="M168 78v1358q0 31 22.5 54t51.5 23h329q186 0 317.5 -137t131.5 -327q0 -150 -83 -268.5t-216 -170.5l338 -489q14 -21 14 -43q0 -34 -23 -56t-51 -22q-41 0 -61 33l-383 551h-238v-506q0 -33 -21.5 -55.5t-53.5 -22.5q-30 0 -52 23.5t-22 54.5zM317 739h254 q122 0 210.5 91.5t88.5 218.5q0 125 -87.5 217t-211.5 92h-254v-619z" />
<glyph unicode="S" d="M162 455q0 30 22.5 53.5t53.5 23.5q29 0 51 -23t22 -54q0 -127 85.5 -213t201.5 -86q103 0 170.5 56.5t73.5 145.5q0 100 -66 154l-407 330q-67 54 -100 131.5t-33 161.5q0 156 103 267t259 111q187 0 328 -151q27 -32 49 -72.5t22 -66.5q0 -32 -22.5 -56t-50.5 -24 q-19 0 -38 13.5t-30 33.5q-92 168 -258 168q-93 0 -154 -69t-61 -159q0 -103 80 -167l407 -330q119 -99 119 -279q-6 -157 -119.5 -255.5t-271.5 -98.5q-122 0 -223.5 64t-157 168t-55.5 223z" />
<glyph unicode="T" d="M8 1436q0 34 22 55.5t54 21.5h991q33 0 54.5 -21.5t21.5 -55.5t-22 -56t-54 -22h-420v-1280q0 -34 -21.5 -56t-53.5 -22t-54 22t-22 56v1280h-420q-32 0 -54 22t-22 56z" />
<glyph unicode="U" d="M150 449v987q0 32 20.5 54.5t52.5 22.5q30 0 52 -23t22 -54v-987q0 -120 82 -207.5t201 -87.5t200.5 89t81.5 206v987q0 31 21 54t53 23q30 0 52 -23t22 -54v-987q0 -188 -126 -318.5t-304 -130.5q-121 0 -220.5 62.5t-154.5 165.5t-55 221z" />
<glyph unicode="V" d="M104 1434q0 36 20.5 57.5t53.5 21.5q23 0 43.5 -14t28.5 -41l330 -1116l329 1116q8 27 28.5 41t43.5 14q36 0 56 -19t20 -54q0 -13 -8 -45l-400 -1346q-14 -49 -69 -49q-56 0 -70 49l-399 1346q-7 25 -7 39z" />
<glyph unicode="W" d="M84 78v1358q0 31 22 54t54 23t52.5 -22.5t20.5 -54.5v-1022l279 587q21 46 68 46q46 0 67 -46l279 -587v1022q0 32 20.5 54.5t52.5 22.5q33 0 54.5 -24t21.5 -53v-1358q0 -32 -22 -55t-54 -23q-46 0 -67 43l-352 750l-353 -750q-21 -43 -67 -43q-32 0 -54 23t-22 55z" />
<glyph unicode="X" d="M160 76q0 22 10 37l326 643l-326 643q-8 19 -8 41q0 31 22 52t52 21q44 0 65 -43l279 -548l278 548q21 43 66 43q32 0 52.5 -20.5t20.5 -52.5q0 -22 -8 -41l-325 -643l325 -643q10 -23 10 -39q0 -31 -22.5 -52.5t-52.5 -21.5q-42 0 -66 41l-278 551l-279 -551 q-24 -41 -65 -41q-32 0 -54 23t-22 53z" />
<glyph unicode="Y" d="M162 1436q0 31 22.5 54t51.5 23q44 0 65 -43l279 -548l278 548q21 43 66 43q29 0 51 -23t22 -54q0 -14 -10 -37l-334 -662v-659q0 -35 -22.5 -56.5t-50.5 -21.5q-30 0 -52 22.5t-22 55.5v659l-334 662q-10 23 -10 37z" />
<glyph unicode="Z" d="M111 78q0 16 10 39l721 1241h-576q-32 0 -54 23t-22 55q0 31 22 54t54 23h709q29 0 51.5 -23t22.5 -54q0 -15 -11 -41l-721 -1241h658q29 0 51.5 -22.5t22.5 -53.5q0 -34 -23 -56t-51 -22h-791q-30 0 -51.5 23.5t-21.5 54.5z" />
<glyph unicode="[" d="M317 -403v1835q0 36 22.5 58.5t51.5 22.5h377q32 0 53 -23.5t21 -57.5q0 -35 -23 -56.5t-51 -21.5h-303v-1678h303q31 0 52.5 -22.5t21.5 -56.5q0 -35 -23 -56.5t-51 -21.5h-377q-30 0 -52 22.5t-22 55.5z" />
<glyph unicode="\" d="M-8 1442q0 31 24 49q19 22 52 22q19 0 34 -12q16 -13 25 -28l960 -1754q9 -15 9 -34q0 -29 -23 -52q-20 -20 -51 -20q-41 0 -61 39l-961 1755q-8 19 -8 35z" />
<glyph unicode="]" d="M317 -403q0 34 21.5 56.5t52.5 22.5h303v1678h-303q-28 0 -51 21.5t-23 56.5q0 34 21 57.5t53 23.5h377q30 0 52 -22.5t22 -58.5v-1835q0 -33 -22 -55.5t-52 -22.5h-377q-28 0 -51 21.5t-23 56.5z" />
<glyph unicode="^" d="M82 838q-11 27 6 57l420 661q24 35 67 35t64 -37l420 -659q12 -18 12 -51q0 -32 -33 -49q-24 -15 -45 -15q-12 0 -18 2q-32 10 -47 33l-355 555l-352 -555q-15 -27 -49 -33q-26 -8 -57 9q-27 17 -33 47z" />
<glyph unicode="_" d="M33 -133q0 28 18 49q20 23 53 23h951q35 0 51 -23q18 -21 18 -49t-18 -49q-16 -23 -51 -23h-951q-33 0 -53 23q-18 21 -18 49z" />
<glyph unicode="`" d="M317 1503q0 13 2 17q10 30 41 47q28 15 50 6q24 -12 32 -23l166 -188q21 -24 21 -47q0 -13 -2 -19q-21 -55 -68 -55q-7 0 -27 4q-11 2 -30 21l-162 188q-23 23 -23 49z" />
<glyph unicode="a" d="M131 295q0 134 92.5 215.5t241.5 83.5q194 2 258.5 6t91.5 18q31 28 31 66q0 72 -74.5 127t-185.5 55q-85 0 -155 -36.5t-107 -106.5q-22 -43 -64 -43q-33 0 -53.5 18.5t-20.5 53.5q0 64 65.5 125t161 97t185.5 36q94 0 182.5 -40t147.5 -116.5t59 -169.5v-612 q0 -32 -22 -52t-50 -20q-29 0 -49 20.5t-20 51.5v94q-65 -86 -168.5 -126t-210.5 -40q-157 0 -246.5 81.5t-89.5 213.5zM279 305q0 -85 55.5 -122.5t161.5 -37.5q155 0 252.5 72.5t97.5 204.5v96q-49 -26 -117 -33t-242 -10q-101 -2 -154.5 -45t-53.5 -125z" />
<glyph unicode="b" d="M186 78v1360q0 33 23 54t51 21q31 0 53.5 -22t22.5 -53v-539q125 113 250 113q209 0 339 -128t130 -325v-108q0 -186 -126.5 -318.5t-299.5 -132.5q-170 0 -293 111v-33q0 -32 -22 -55t-54 -23q-30 0 -52 22.5t-22 55.5zM336 451q0 -127 83 -211t199 -84 q118 0 202.5 86.5t84.5 208.5v108q0 128 -84 212.5t-203 84.5q-117 0 -199.5 -86.5t-82.5 -210.5v-108z" />
<glyph unicode="c" d="M207 442v125q0 121 60.5 223.5t161 161t214.5 58.5q118 0 221.5 -62.5t159.5 -167.5q10 -20 10 -37q0 -29 -22.5 -51t-53.5 -22q-22 0 -37.5 11t-36.5 41t-24 34q-38 47 -96 74.5t-121 27.5q-118 0 -202.5 -86t-84.5 -205v-125q0 -120 84 -205t203 -85q72 0 134.5 34.5 t103.5 96.5q10 23 32 41t48 18q29 0 51 -23t22 -53q0 -22 -10 -37q-55 -104 -159.5 -166.5t-223.5 -62.5q-117 0 -217.5 61.5t-158.5 163.5t-58 217z" />
<glyph unicode="d" d="M125 451v106q0 95 36.5 180t97 144.5t139.5 94t163 34.5q85 0 152 -27.5t131 -85.5v541q0 31 22.5 53t53.5 22q28 0 50.5 -21t22.5 -54v-1360q0 -33 -21.5 -55.5t-51.5 -22.5q-32 0 -54 23t-22 55v33q-123 -111 -293 -111q-173 0 -299.5 132.5t-126.5 318.5zM274 451 q0 -122 84.5 -208.5t202.5 -86.5q116 0 199.5 84t83.5 211v106q0 124 -83 210.5t-200 86.5q-119 0 -203 -84.5t-84 -212.5v-106z" />
<glyph unicode="e" d="M162 442v125q0 183 128.5 313t315.5 130q193 0 312.5 -141t119.5 -347q0 -42 -21 -64t-54 -22h-650q0 -121 86.5 -202.5t208.5 -81.5q46 0 83.5 11.5t67.5 36.5t48.5 46.5t44.5 56.5q27 39 63 39q29 0 53.5 -21t24.5 -47q0 -22 -10 -45q-36 -88 -147.5 -158.5 t-237.5 -70.5q-179 0 -307.5 130.5t-128.5 311.5zM313 588h570q-18 131 -93.5 200.5t-185.5 69.5q-121 0 -203 -79t-88 -191z" />
<glyph unicode="f" d="M143 78q0 34 23 56t51 22h254v721h-254q-74 0 -74 67q0 66 74 66h254v221q0 122 79.5 202t192.5 80q116 0 194.5 -80.5t78.5 -187.5q0 -92 -74 -92q-34 0 -55 25t-21 63q0 133 -123 133q-122 0 -122 -143v-221h321q74 0 74 -66q0 -67 -74 -67h-321v-721h321 q30 0 52 -23.5t22 -54.5q0 -34 -23 -56t-51 -22h-725q-30 0 -52 23.5t-22 54.5z" />
<glyph unicode="g" d="M137 -190q0 110 88 180l31 24q-119 76 -119 224q0 147 111 258q-27 62 -27 139q0 156 106.5 266.5t260.5 110.5q152 0 256 -113l153 139q15 13 35 13q7 0 15 -2q29 -6 45 -26.5t16 -43.5q0 -34 -35 -64l-151 -139q26 -59 26 -139q0 -170 -103.5 -272.5t-260.5 -102.5 q-61 0 -133.5 29t-122.5 80q-49 -61 -49 -123q0 -121 100 -121h418q103 0 164 -70.5t61 -171.5q0 -123 -91.5 -217t-217.5 -94h-351q-101 0 -163 70t-62 166zM279 -190q0 -40 24.5 -65.5t58.5 -25.5h351q109 0 155 105q13 34 13 63q0 26 -10 47q-21 46 -74 46h-355 l-131 -105q-32 -25 -32 -65zM362 637q0 -99 66 -164t156 -65q100 0 161.5 67t61.5 162q0 100 -65.5 163.5t-157.5 63.5q-98 0 -160 -67t-62 -160z" />
<glyph unicode="h" d="M164 78v1358q0 31 22.5 54t51.5 23q33 0 54 -24t21 -53v-578q133 154 287 154q180 0 308 -134.5t128 -320.5v-479q0 -34 -22.5 -56t-50.5 -22q-32 0 -54 23t-22 55v479q0 123 -86 211t-201 88q-118 0 -202.5 -89t-84.5 -210v-479q0 -33 -21.5 -55.5t-53.5 -22.5 q-30 0 -52 23.5t-22 54.5z" />
<glyph unicode="i" d="M141 78q0 29 22.5 53.5t53.5 24.5h348v698h-348q-32 0 -54 23t-22 55q0 29 22.5 53.5t53.5 24.5h424q31 0 53.5 -23.5t22.5 -54.5v-776h287q30 0 52.5 -23.5t22.5 -54.5q0 -33 -21.5 -55.5t-53.5 -22.5h-787q-32 0 -54 23t-22 55zM496 1300q0 53 35 91.5t87 38.5 q57 0 91 -38.5t34 -91.5q0 -54 -35 -90t-90 -36q-53 0 -87.5 38t-34.5 88z" />
<glyph unicode="j" d="M141 -14q0 31 23 55.5t53 24.5q31 0 53.5 -24t22.5 -56q0 -125 86 -213t201 -88q119 0 202.5 89t83.5 212v866h-477q-32 0 -54 23t-22 55q0 31 23 55.5t53 24.5h553q31 0 53.5 -24t22.5 -56v-944q0 -188 -129.5 -322.5t-308.5 -134.5q-119 0 -220 62t-160 167.5 t-59 227.5zM739 1298q0 54 35 93t88 39q56 0 89.5 -39.5t33.5 -92.5t-35.5 -91t-87.5 -38q-54 0 -88.5 39.5t-34.5 89.5z" />
<glyph unicode="k" d="M221 78v1358q0 31 21 54t53 23t53 -23t21 -54v-965l544 518q24 21 52 21q31 0 52 -23t21 -55q0 -36 -22 -58l-322 -305l350 -442q17 -24 17 -49q0 -35 -22.5 -56.5t-51.5 -21.5q-34 0 -57 29l-346 436l-215 -205v-182q0 -35 -22.5 -56.5t-51.5 -21.5q-31 0 -52.5 23 t-21.5 55z" />
<glyph unicode="l" d="M51 1436q0 36 23 56.5t53 20.5h311q32 0 54 -21.5t22 -55.5v-1078q0 -88 60.5 -146t140.5 -58q83 0 141.5 59.5t58.5 144.5q0 32 22 55t54 23t54 -22t22 -56q0 -147 -103 -253.5t-249 -106.5q-143 0 -248 106t-105 254v1000h-235q-32 0 -54 22t-22 56z" />
<glyph unicode="m" d="M147 76v858q0 31 22 53.5t54 22.5q44 0 60 -29q63 29 118 29q105 0 179 -74q74 74 178 74t179 -76t75 -180v-678q0 -31 -22.5 -53.5t-53.5 -22.5q-29 0 -51.5 22.5t-22.5 53.5v678q0 43 -30.5 73.5t-73.5 30.5q-44 0 -73.5 -30t-29.5 -74v-678q0 -31 -22 -53.5t-53 -22.5 t-53.5 22.5t-22.5 53.5v678q0 43 -29.5 73.5t-73.5 30.5q-43 0 -73.5 -30.5t-30.5 -73.5v-678q0 -33 -23 -54.5t-51 -21.5q-31 0 -53.5 22.5t-22.5 53.5z" />
<glyph unicode="n" d="M162 76v858q0 31 22 53.5t54 22.5t53.5 -22.5t21.5 -53.5v-107q59 95 133 139t191 44q193 0 297 -112t104 -331v-491q0 -31 -22 -53.5t-53 -22.5t-53.5 22.5t-22.5 53.5v491q0 143 -72 217t-199 74q-144 0 -223.5 -87t-79.5 -204v-491q0 -31 -22 -53.5t-53 -22.5 t-53.5 22.5t-22.5 53.5z" />
<glyph unicode="o" d="M141 442v125q0 181 128 312t311 131q123 0 224.5 -61.5t157.5 -163t56 -218.5v-125q0 -185 -129.5 -313.5t-308.5 -128.5q-122 0 -223.5 61t-158.5 162.5t-57 218.5zM293 442q0 -121 86 -205.5t201 -84.5q118 0 202 85.5t84 204.5v125q0 120 -83 205.5t-203 85.5 q-122 0 -204.5 -86.5t-82.5 -204.5v-125z" />
<glyph unicode="p" d="M162 -393v1327q0 31 22.5 53.5t53.5 22.5t53 -22.5t22 -53.5v-96q114 172 308 172q168 -3 292.5 -137t124.5 -316v-104q0 -186 -117.5 -319.5t-287.5 -133.5q-189 0 -320 174v-567q0 -33 -21.5 -55.5t-53.5 -22.5t-54 23t-22 55zM313 453q0 -123 83.5 -210t203.5 -87 q121 0 204 86.5t83 210.5v104q0 121 -81.5 210t-205.5 89q-121 0 -204 -88.5t-83 -210.5v-104z" />
<glyph unicode="q" d="M141 453v104q0 182 125 316t293 137q193 0 307 -172v96q0 31 22.5 53.5t53.5 22.5t53.5 -22.5t22.5 -53.5v-1327q0 -32 -22 -55t-54 -23t-54 23t-22 55v567q-131 -174 -319 -174q-170 0 -288 133.5t-118 319.5zM293 453q0 -124 83 -210.5t204 -86.5q120 0 203 87t83 210 v104q0 122 -82.5 210.5t-203.5 88.5q-124 0 -205.5 -89t-81.5 -210v-104z" />
<glyph unicode="r" d="M137 72q0 29 21.5 50t50.5 21h123v795q0 33 21 52.5t48 19.5q28 0 50 -21t22 -51v-100q75 93 146.5 132.5t148.5 39.5q63 0 134 -21t122 -61q26 -21 29 -47v-9q-1 -24 -13 -44q-16 -24 -45 -29q-30 -3 -55 12q-74 55 -160 55q-131 0 -219 -86t-88 -211v-426h287 q29 0 50 -21t21 -50t-21 -50.5t-50 -21.5h-551q-29 0 -50.5 21.5t-21.5 50.5z" />
<glyph unicode="s" d="M146 234q3 18 20 42q28 28 56.5 28t58.5 -28q74 -76 147 -107.5t168 -31.5q111 0 187.5 39t76.5 119q0 29 -10 51t-31.5 36.5t-42.5 24t-57.5 15.5t-60.5 8.5t-66 5.5t-67 5.5t-65 8t-65 12t-58 17.5t-53.5 24.5t-43 34t-35 45t-21 57t-8.5 71.5q0 143 100.5 221 t274.5 78q119 0 218 -37t161 -99q26 -26 24 -53q-2 -29 -24 -51t-51 -22q-25 0 -54 24q-63 51 -127.5 73.5t-148.5 22.5q-221 0 -221 -139q0 -71 62 -102t194 -41q43 -3 72.5 -5.5t78 -11t82.5 -20t73.5 -33t64 -49.5t41 -70t16.5 -94q0 -97 -54.5 -166.5t-143.5 -102.5 t-202 -34q-36 0 -82.5 5.5t-115 21t-134.5 52.5t-110 91q-15 19 -21 32q-4 9 -4 20q0 6 1 12z" />
<glyph unicode="t" d="M70 944q0 28 20 47t53 19h187v284q0 32 22 55t54 23t53.5 -22.5t21.5 -55.5v-284h514q35 0 54.5 -19.5t19.5 -46.5q0 -31 -20 -49t-54 -18h-514v-498q0 -92 63 -158.5t156 -66.5q92 0 156 66t64 159q0 32 22 54t53 22t53.5 -22.5t22.5 -53.5q0 -156 -108.5 -267.5 t-262.5 -111.5q-155 0 -262.5 111t-107.5 268v498h-187q-35 0 -54 19t-19 48z" />
<glyph unicode="u" d="M141 442v492q0 31 22.5 53.5t53.5 22.5t53.5 -22.5t22.5 -53.5v-492q0 -144 71 -217t203 -73t215 86q84 87 84 204v492q0 31 22.5 53.5t53.5 22.5t53.5 -22.5t22.5 -53.5v-858q0 -32 -22 -54t-54 -22t-54 22t-22 54v114q-63 -100 -143 -145t-195 -45q-190 0 -288.5 112 t-98.5 330z" />
<glyph unicode="v" d="M141 934q0 30 22 53t56 23q48 0 68 -45l293 -697l292 697q20 45 68 45q34 0 56 -23t22 -53l-373 -893q-12 -22 -26.5 -31.5t-38.5 -9.5t-38 9t-28 32z" />
<glyph unicode="w" d="M84 928v9q0 24 14 45q17 25 45 28h8q24 0 46 -14q25 -18 28 -46l109 -698l182 383q18 37 64 37q45 0 63 -37l182 -383l109 698q4 27 28 45q21 15 46 15h8q26 -4 44 -28q15 -21 15 -45v-9l-143 -869q-3 -28 -24.5 -43.5t-49.5 -15.5q-44 0 -61 39l-217 410l-218 -410 q-20 -39 -57 -39q-28 0 -51 16t-27 43z" />
<glyph unicode="x" d="M141 76q0 14 6 26q3 13 13 23l321 381l-321 379q-10 10 -13 24q-6 12 -6 25q0 33 23 53q20 23 53 23q36 0 57 -27l306 -360l305 360q21 27 57 27q33 0 53 -23q23 -20 23 -53q0 -13 -6 -25q-3 -14 -13 -24l-321 -379l321 -381q10 -10 13 -23q6 -12 6 -26q0 -30 -23 -53 t-53 -23q-36 0 -57 27l-305 362l-306 -362q-21 -27 -57 -27q-30 0 -53 23t-23 53z" />
<glyph unicode="y" d="M182 932q0 33 25.5 56.5t52.5 23.5q21 0 40.5 -14t27.5 -35l293 -713l292 713q8 21 27.5 35t40.5 14q30 0 54 -24t24 -56q0 -14 -6 -29l-547 -1327q-9 -22 -28 -34.5t-42 -12.5q-31 0 -53.5 22t-22.5 54q0 13 7 30l172 418l-351 850q-6 15 -6 29z" />
<glyph unicode="z" d="M141 74q0 32 19 51l622 733h-565q-31 0 -53.5 22.5t-22.5 53.5t22 53.5t54 22.5h729q32 0 54 -22.5t22 -53.5q0 -28 -18 -49l-623 -733h623q31 0 53 -22.5t22 -53.5t-22 -53.5t-53 -22.5h-787q-30 0 -53 23t-23 51z" />
<glyph unicode="{" d="M285 449q0 48 34 67q203 136 203 283q0 55 -50 203t-50 210q0 123 85 212t208 89h86q30 0 51.5 -21.5t21.5 -57.5q0 -33 -21.5 -55.5t-51.5 -22.5h-86q-57 0 -99.5 -44t-42.5 -104q0 -53 49.5 -192.5t49.5 -206.5q0 -104 -45.5 -199.5t-130.5 -160.5q76 -64 119.5 -156.5 t43.5 -192.5q0 -62 -36.5 -154.5t-36.5 -135.5q0 -60 41 -102t102 -42h72q29 0 51 -22t22 -58q0 -33 -21.5 -55.5t-51.5 -22.5h-72q-122 0 -208.5 93t-86.5 213q0 57 39 152t39 147q0 76 -48 138t-145 132q-34 19 -34 66z" />
<glyph unicode="|" d="M508 -410v1852q0 31 20 51t52 20q31 0 51 -20t20 -51v-1852q0 -33 -20 -53q-21 -18 -51 -18q-31 0 -52 18q-20 20 -20 53z" />
<glyph unicode="}" d="M285 -414q0 36 21.5 58t51.5 22h72q61 0 102 42t41 102q0 43 -36.5 135.5t-36.5 154.5q0 100 44 192.5t120 156.5q-85 65 -131 161t-46 199q0 67 49.5 206.5t49.5 192.5q0 60 -42.5 104t-99.5 44h-86q-30 0 -51.5 22.5t-21.5 55.5q0 36 21.5 57.5t51.5 21.5h86 q123 0 208 -89t85 -212q0 -62 -50 -210t-50 -203q0 -147 203 -283q34 -19 34 -67q0 -47 -34 -66q-97 -70 -145 -132t-48 -138q0 -52 39 -147t39 -152q0 -120 -86.5 -213t-208.5 -93h-72q-30 0 -51.5 22.5t-21.5 55.5z" />
<glyph unicode="~" d="M121 555q0 19 10 39q94 172 268 172q72 0 141 -23t112 -50t87 -49t74 -21q83 3 109 77q8 22 28.5 37t46.5 15q32 0 56 -24t24 -56q0 -14 -6 -29q-32 -83 -97.5 -130t-154.5 -50q-59 -3 -120.5 19t-105 49.5t-97 51t-97.5 23.5q-81 0 -127 -88q-21 -43 -71 -43 q-32 0 -56 24t-24 56z" />
<glyph />
<glyph unicode="&#xa0;" />
<glyph unicode="&#xa1;" d="M408 1335q0 69 49.5 123.5t122.5 54.5q67 0 119.5 -52t52.5 -126q0 -71 -51 -124.5t-121 -53.5q-67 0 -119.5 52t-52.5 126zM508 72v852q0 32 20.5 51.5t51.5 19.5q32 0 51.5 -20t19.5 -51v-852q0 -32 -20 -52t-51 -20q-32 0 -52 20.5t-20 51.5z" />
<glyph unicode="&#xa2;" d="M166 442v125q0 163 105 287.5t257 149.5v233q0 31 20 51.5t52 20.5q31 0 51.5 -20t20.5 -52v-233q100 -15 182.5 -75t128.5 -149q27 -49 -12 -88q-19 -19 -46.5 -22.5t-39.5 8.5q-26 15 -64 67t-67 70q-47 28 -82 35v-690q46 14 79 35t50.5 41t47.5 60q7 10 11 15 q19 27 51.5 30t59.5 -22q33 -37 12 -90q-46 -90 -130.5 -149t-180.5 -74v-231q0 -31 -20 -51.5t-52 -20.5q-31 0 -51.5 20t-20.5 52v231q-162 32 -262 154.5t-100 281.5zM315 442q0 -96 61 -175.5t152 -104.5v688q-94 -28 -153.5 -106.5t-59.5 -176.5v-125z" />
<glyph unicode="&#xa3;" d="M57 928q0 33 22 56.5t54 23.5h141q8 129 75.5 245t179.5 188t239 72h258q32 0 54 -23t22 -56q0 -32 -22 -55t-54 -23h-258q-127 0 -226.5 -105t-111.5 -243h338q32 0 55 -24t23 -56q0 -33 -22.5 -55.5t-55.5 -22.5h-330l2 -6q13 -87 19.5 -140t12 -125t0.5 -122t-17 -106 t-37.5 -103t-63.5 -90h672q32 0 54 -23t22 -57q0 -36 -23 -57t-53 -21h-893q-25 0 -45 15t-29 40q-17 51 33 88q83 55 139 111q45 43 67 117.5t21.5 153.5t-8 148t-18 122.5t-10.5 54.5h-150q-32 0 -54 22t-22 56z" />
<glyph unicode="&#xa5;" d="M162 1436q0 31 22.5 54t51.5 23q44 0 65 -43l279 -548l278 548q21 43 66 43q29 0 51 -23t22 -54q0 -14 -10 -37l-328 -651h252q33 0 51.5 -22t18.5 -50q0 -30 -19.5 -51t-50.5 -21h-258v-184h258q33 0 51.5 -22t18.5 -50q0 -30 -19.5 -51t-50.5 -21h-258v-198 q0 -35 -22.5 -56.5t-50.5 -21.5q-30 0 -52 22.5t-22 55.5v198h-258q-33 0 -52.5 22t-19.5 50q0 31 20 51.5t52 20.5h258v184h-258q-33 0 -52.5 22t-19.5 50q0 31 20 51.5t52 20.5h252l-328 651q-10 23 -10 37z" />
<glyph unicode="&#xa9;" d="M127 1051q0 95 37 176q34 81 96 143t143 96q81 37 177 37q95 0 176 -37q81 -34 143 -96t96 -143q37 -81 37 -176q0 -96 -37 -177q-34 -81 -96 -143t-143 -96q-81 -37 -176 -37q-96 0 -177 37q-81 34 -143 96t-96 143q-37 81 -37 177zM207 1051q0 -76 31 -146 q26 -65 77 -119q54 -51 119 -77q70 -31 146 -31q72 0 145 31q65 26 119 77q53 56 78 119q30 67 30 146q0 75 -30 143q-25 63 -78 119q-54 54 -119 80q-73 28 -145 28q-76 0 -146 -28q-65 -26 -119 -80q-51 -54 -77 -119q-31 -70 -31 -143zM311 1044q0 56 21 103q21 50 57 86 q33 33 82 55q49 21 102 21q47 0 103 -21q56 -23 84 -57q12 -12 12 -29q0 -16 -12 -28q-13 -13 -29 -13q-9 0 -26 10l-29 23q-24 16 -43 23q-27 10 -60 10q-35 0 -69 -15q-35 -15 -58 -38t-38 -60q-15 -30 -15 -70q0 -39 15 -69q15 -37 38 -60t58 -38q34 -15 69 -15 q33 0 60 10q19 7 43 23l29 23q17 10 26 10q16 0 29 -13q12 -12 12 -28q0 -17 -12 -29q-28 -34 -84 -57q-55 -21 -103 -21q-53 0 -102 21q-49 22 -82 55q-36 36 -57 86q-21 46 -21 102z" />
<glyph unicode="&#xac;" d="M25 971q0 29 22 57q21 27 66 27h934q33 0 61 -25q27 -24 27 -59v-451q0 -43 -29 -63q-24 -21 -59 -21q-36 0 -60 21q-29 20 -29 63v367h-845q-46 0 -66 26q-22 28 -22 58z" />
<glyph unicode="&#xad;" d="M217 512q0 27 19 49q20 23 53 23h581q36 0 52 -23q18 -21 18 -49t-18 -49q-16 -23 -52 -23h-581q-33 0 -53 23q-19 22 -19 49z" />
<glyph unicode="&#xae;" d="M127 1051q0 95 37 176q34 81 96 143t143 96q81 37 177 37q95 0 176 -37q81 -34 143 -96t96 -143q37 -81 37 -176q0 -96 -37 -177q-34 -81 -96 -143t-143 -96q-81 -37 -176 -37q-96 0 -177 37q-81 34 -143 96t-96 143q-37 81 -37 177zM207 1051q0 -76 31 -146 q26 -65 77 -119q54 -51 119 -77q70 -31 146 -31q72 0 145 31q65 26 119 77q53 56 78 119q30 67 30 146q0 75 -30 143q-25 63 -78 119q-54 54 -119 80q-73 28 -145 28q-76 0 -146 -28q-65 -26 -119 -80q-51 -54 -77 -119q-31 -70 -31 -143zM469 823v449q0 14 10 22 q7 11 21 11h108q59 0 99 -43q38 -44 38 -103q0 -49 -30 -90q-29 -39 -90 -55q18 -30 34 -62q21 -35 33 -59q5 -8 13 -23.5t12 -21.5q8 -24 8 -25q0 -8 -8 -24q-16 -8 -23 -8q-18 0 -28 16l-115 207h-19v-191q0 -17 -7.5 -24.5t-24.5 -7.5q-13 0 -21 8q-10 10 -10 24z M532 1079h76q32 0 54 25q20 23 20 55q0 33 -20 53q-22 25 -54 25h-76v-158z" />
<glyph unicode="&#xb1;" d="M80 743q0 34 22 56t56 22h342v346q0 34 22 56t56 22q33 0 55 -22t22 -56v-346h342q34 0 56 -22t22 -56q0 -33 -22 -55t-56 -22h-342v-347q0 -33 -22 -55t-55 -22q-34 0 -56 22t-22 55v347h-342q-34 0 -56 22t-22 55zM86 78q0 32 23 55t55 23h837q33 0 56 -23 q22 -22 22 -55t-22 -55q-23 -23 -56 -23h-837q-32 0 -55 23t-23 55z" />
<glyph unicode="&#xb6;" d="M178 1022q0 105 39 190q43 94 105 156q60 63 153 107q86 38 193 38h254q26 0 41 -18q18 -18 18 -43v-1393q0 -25 -18 -43q-16 -16 -41 -16q-24 0 -43 16q-19 19 -19 43v1334h-131v-1334q0 -25 -18 -43q-19 -16 -43 -16q-25 0 -41 16q-19 19 -19 43v478q-90 9 -170 53 q-80 43 -135 106q-51 53 -92 148q-33 82 -33 178z" />
<glyph unicode="&#xb8;" d="M393 -322q0 58 56 58l71 -2q160 0 160 67q0 81 -141 84q-37 0 -19 37q64 125 107 213l123 4l-101 -188q146 -18 146 -137q0 -195 -283 -195h-39q-80 0 -80 59z" />
<glyph unicode="&#xbf;" d="M147 410q0 170 86.5 253.5t276.5 90.5v196q0 40 20.5 61t49.5 21q33 0 57.5 -22.5t24.5 -59.5v-266q0 -78 -97 -78q-147 0 -206.5 -46t-59.5 -150q0 -118 83 -186t204 -68q105 0 195.5 80t90.5 170q0 54 24.5 82t57.5 28q28 0 49 -18.5t21 -46.5q0 -186 -128.5 -318.5 t-309.5 -132.5q-186 0 -312.5 114.5t-126.5 295.5zM424 1352q0 71 43.5 116t110.5 45q65 0 110 -48.5t45 -112.5q0 -69 -45 -115.5t-108 -46.5t-109.5 48t-46.5 114z" />
<glyph unicode="&#xc0;" d="M2 78l508 1388q18 47 70 47q54 0 69 -47l508 -1388q0 -36 -23 -57t-53 -21q-49 0 -69 49l-127 342h-611l-127 -342q-21 -49 -69 -49q-32 0 -54 22t-22 56zM322 1898q0 32 23 55t52 23q32 0 52 -26l182 -195q20 -17 20 -45q0 -31 -21.5 -53.5t-49.5 -22.5q-33 0 -56 23 l-182 194q-20 20 -20 47zM332 545h495l-247 672z" />
<glyph unicode="&#xc1;" d="M2 78l508 1388q18 47 70 47q54 0 69 -47l508 -1388q0 -36 -23 -57t-53 -21q-49 0 -69 49l-127 342h-611l-127 -342q-21 -49 -69 -49q-32 0 -54 22t-22 56zM332 545h495l-247 672zM504 1710q0 28 20 45l183 195q20 26 51 26q29 0 52.5 -23.5t23.5 -54.5q0 -26 -21 -47 l-182 -194q-23 -23 -56 -23q-28 0 -49.5 22.5t-21.5 53.5z" />
<glyph unicode="&#xc2;" d="M2 78l508 1388q18 47 70 47q54 0 69 -47l508 -1388q0 -36 -23 -57t-53 -21q-49 0 -69 49l-127 342h-611l-127 -342q-21 -49 -69 -49q-32 0 -54 22t-22 56zM295 1681q0 25 27 52l206 206q26 23 52 23q23 0 49 -23l209 -206q26 -26 26 -52q0 -29 -19.5 -46t-43.5 -17 q-25 0 -43 18l-178 179l-179 -179q-18 -18 -43 -18q-27 0 -45 18t-18 45zM332 545h495l-247 672z" />
<glyph unicode="&#xc3;" d="M2 78l508 1388q18 47 70 47q54 0 69 -47l508 -1388q0 -36 -23 -57t-53 -21q-49 0 -69 49l-127 342h-611l-127 -342q-21 -49 -69 -49q-32 0 -54 22t-22 56zM256 1698q0 15 8 31q69 118 207 118q37 0 87.5 -25.5t96.5 -51t74 -25.5q32 0 57 41q17 31 54 31q25 0 43 -18 t18 -44q0 -18 -10 -31q-60 -102 -162 -102q-47 0 -102 25.5t-97 51t-59 25.5q-67 0 -100 -57q-17 -31 -54 -31q-25 0 -43 18t-18 44zM332 545h495l-247 672z" />
<glyph unicode="&#xc4;" d="M2 78l508 1388q18 47 70 47q54 0 69 -47l508 -1388q0 -36 -23 -57t-53 -21q-49 0 -69 49l-127 342h-611l-127 -342q-21 -49 -69 -49q-32 0 -54 22t-22 56zM254 1765q0 53 35.5 91t87.5 38q56 0 90.5 -39.5t34.5 -89.5q0 -53 -36.5 -90t-88.5 -37q-53 0 -88 38.5t-35 88.5 zM332 545h495l-247 672zM657 1765q0 53 36 91t89 38q54 0 88.5 -39.5t34.5 -89.5q0 -52 -35.5 -89.5t-87.5 -37.5t-88.5 37t-36.5 90z" />
<glyph unicode="&#xc5;" d="M2 78l498 1362q-49 22 -80 68.5t-31 103.5q0 78 55 134t136 56q78 0 134 -54.5t56 -135.5q0 -56 -30.5 -103t-80.5 -71l498 -1360q0 -36 -23 -57t-53 -21q-49 0 -69 49l-127 342h-611l-127 -342q-21 -49 -69 -49q-32 0 -54 22t-22 56zM332 545h495l-247 672zM483 1612 q0 -41 28 -68.5t69 -27.5t68.5 27.5t27.5 68.5t-27.5 68.5t-68.5 27.5t-69 -27.5t-28 -68.5z" />
<glyph unicode="&#xc6;" d="M33 78l483 1325q30 110 94 110h416q31 0 51.5 -22.5t20.5 -56.5q0 -33 -22.5 -54.5t-49.5 -21.5h-342v-524h252q29 0 51.5 -22.5t22.5 -53.5q0 -35 -23 -56.5t-51 -21.5h-252v-526h342q29 0 50.5 -22.5t21.5 -53.5q0 -35 -22 -56.5t-50 -21.5h-416q-28 0 -49.5 22.5 t-21.5 55.5v313h-234l-127 -342q-18 -49 -69 -49q-76 0 -76 78zM362 545h177v585z" />
<glyph unicode="&#xc7;" d="M172 446v621q0 120 56.5 222.5t155 163t216.5 60.5t216.5 -60.5t155 -163t56.5 -222.5q0 -35 -22.5 -56.5t-51.5 -21.5q-31 0 -52 23t-21 55q0 119 -82.5 205t-198.5 86q-119 0 -200 -87t-81 -204v-621q0 -119 82.5 -205.5t198.5 -86.5q120 0 200.5 87t80.5 205 q0 35 22.5 55.5t50.5 20.5q31 0 52.5 -22t21.5 -54q0 -167 -108.5 -294.5t-266.5 -147.5l-92 -174q76 0 111 -40t35 -103q0 -93 -71.5 -142t-211.5 -49h-64q-25 0 -41 14.5t-16 43.5q0 27 15 42t42 15h72q160 0 160 76q0 20 -10 34.5t-23 21.5t-35.5 11.5t-36 5.5t-36.5 2 q-25 0 -25 17q0 8 6 20l103 205q-156 26 -259.5 152t-103.5 290z" />
<glyph unicode="&#xc8;" d="M164 78v1358q0 31 21 54t51 23h749q30 0 51 -23t21 -56q0 -34 -22 -55t-50 -21h-676v-524h525q30 0 51.5 -22.5t21.5 -55.5q0 -34 -22.5 -55t-50.5 -21h-525v-526h676q29 0 50.5 -23t21.5 -55q0 -33 -22.5 -54.5t-49.5 -21.5h-749q-30 0 -51 22.5t-21 55.5zM322 1898 q0 32 23 55t52 23q32 0 52 -26l182 -195q20 -17 20 -45q0 -31 -21.5 -53.5t-49.5 -22.5q-33 0 -56 23l-182 194q-20 20 -20 47z" />
<glyph unicode="&#xc9;" d="M164 78v1358q0 31 21 54t51 23h749q30 0 51 -23t21 -56q0 -34 -22 -55t-50 -21h-676v-524h525q30 0 51.5 -22.5t21.5 -55.5q0 -34 -22.5 -55t-50.5 -21h-525v-526h676q29 0 50.5 -23t21.5 -55q0 -33 -22.5 -54.5t-49.5 -21.5h-749q-30 0 -51 22.5t-21 55.5zM504 1710 q0 28 20 45l183 195q20 26 51 26q29 0 52.5 -23.5t23.5 -54.5q0 -26 -21 -47l-182 -194q-23 -23 -56 -23q-28 0 -49.5 22.5t-21.5 53.5z" />
<glyph unicode="&#xca;" d="M164 78v1358q0 31 21 54t51 23h749q30 0 51 -23t21 -56q0 -34 -22 -55t-50 -21h-676v-524h525q30 0 51.5 -22.5t21.5 -55.5q0 -34 -22.5 -55t-50.5 -21h-525v-526h676q29 0 50.5 -23t21.5 -55q0 -33 -22.5 -54.5t-49.5 -21.5h-749q-30 0 -51 22.5t-21 55.5zM295 1681 q0 25 27 52l206 206q26 23 52 23q23 0 49 -23l209 -206q26 -26 26 -52q0 -29 -19.5 -46t-43.5 -17q-25 0 -43 18l-178 179l-179 -179q-18 -18 -43 -18q-27 0 -45 18t-18 45z" />
<glyph unicode="&#xcb;" d="M164 78v1358q0 31 21 54t51 23h749q30 0 51 -23t21 -56q0 -34 -22 -55t-50 -21h-676v-524h525q30 0 51.5 -22.5t21.5 -55.5q0 -34 -22.5 -55t-50.5 -21h-525v-526h676q29 0 50.5 -23t21.5 -55q0 -33 -22.5 -54.5t-49.5 -21.5h-749q-30 0 -51 22.5t-21 55.5zM254 1765 q0 53 35.5 91t87.5 38q56 0 90.5 -39.5t34.5 -89.5q0 -53 -36.5 -90t-88.5 -37q-53 0 -88 38.5t-35 88.5zM657 1765q0 53 36 91t89 38q54 0 88.5 -39.5t34.5 -89.5q0 -52 -35.5 -89.5t-87.5 -37.5t-88.5 37t-36.5 90z" />
<glyph unicode="&#xcc;" d="M184 78q0 35 22.5 55.5t51.5 20.5h248v1206h-248q-31 0 -52.5 23t-21.5 55q0 35 22.5 55t51.5 20h643q31 0 52.5 -21.5t21.5 -53.5q0 -35 -22.5 -56.5t-51.5 -21.5h-248v-1206h248q31 0 52.5 -22t21.5 -54q0 -33 -21 -55.5t-53 -22.5h-643q-31 0 -52.5 23t-21.5 55z M322 1898q0 32 23 55t52 23q32 0 52 -26l182 -195q20 -17 20 -45q0 -31 -21.5 -53.5t-49.5 -22.5q-33 0 -56 23l-182 194q-20 20 -20 47z" />
<glyph unicode="&#xcd;" d="M184 78q0 35 22.5 55.5t51.5 20.5h248v1206h-248q-31 0 -52.5 23t-21.5 55q0 35 22.5 55t51.5 20h643q31 0 52.5 -21.5t21.5 -53.5q0 -35 -22.5 -56.5t-51.5 -21.5h-248v-1206h248q31 0 52.5 -22t21.5 -54q0 -33 -21 -55.5t-53 -22.5h-643q-31 0 -52.5 23t-21.5 55z M504 1710q0 28 20 45l183 195q20 26 51 26q29 0 52.5 -23.5t23.5 -54.5q0 -26 -21 -47l-182 -194q-23 -23 -56 -23q-28 0 -49.5 22.5t-21.5 53.5z" />
<glyph unicode="&#xce;" d="M184 78q0 35 22.5 55.5t51.5 20.5h248v1206h-248q-31 0 -52.5 23t-21.5 55q0 35 22.5 55t51.5 20h643q31 0 52.5 -21.5t21.5 -53.5q0 -35 -22.5 -56.5t-51.5 -21.5h-248v-1206h248q31 0 52.5 -22t21.5 -54q0 -33 -21 -55.5t-53 -22.5h-643q-31 0 -52.5 23t-21.5 55z M295 1681q0 25 27 52l206 206q26 23 52 23q23 0 49 -23l209 -206q26 -26 26 -52q0 -29 -19.5 -46t-43.5 -17q-25 0 -43 18l-178 179l-179 -179q-18 -18 -43 -18q-27 0 -45 18t-18 45z" />
<glyph unicode="&#xcf;" d="M184 78q0 35 22.5 55.5t51.5 20.5h248v1206h-248q-31 0 -52.5 23t-21.5 55q0 35 22.5 55t51.5 20h643q31 0 52.5 -21.5t21.5 -53.5q0 -35 -22.5 -56.5t-51.5 -21.5h-248v-1206h248q31 0 52.5 -22t21.5 -54q0 -33 -21 -55.5t-53 -22.5h-643q-31 0 -52.5 23t-21.5 55z M254 1765q0 53 35.5 91t87.5 38q56 0 90.5 -39.5t34.5 -89.5q0 -53 -36.5 -90t-88.5 -37q-53 0 -88 38.5t-35 88.5zM657 1765q0 53 36 91t89 38q54 0 88.5 -39.5t34.5 -89.5q0 -52 -35.5 -89.5t-87.5 -37.5t-88.5 37t-36.5 90z" />
<glyph unicode="&#xd0;" d="M14 758q0 25 18.5 43t43.5 18h100v617q0 35 22 56t52 21h354q118 0 216.5 -60.5t155 -163t56.5 -222.5v-621q0 -119 -57 -222t-155.5 -163.5t-215.5 -60.5h-354q-31 0 -52.5 23t-21.5 55v616h-100q-26 0 -44 19.5t-18 44.5zM324 154h280q115 0 198 87t83 205v621 q0 120 -84.5 206.5t-196.5 86.5h-280v-541h256q26 0 43 -18t20 -45q-2 -25 -20 -42.5t-43 -17.5l-256 -2v-540z" />
<glyph unicode="&#xd1;" d="M133 78v1360q0 33 23 54t51 21q43 0 63 -38l609 -1106v1069q0 33 22.5 54t50.5 21q30 0 52 -22.5t22 -52.5v-1360q0 -35 -23 -56.5t-51 -21.5q-46 0 -63 39l-608 1106v-1067q0 -35 -23 -56.5t-51 -21.5q-30 0 -52 22.5t-22 55.5zM256 1698q0 15 8 31q69 118 207 118 q37 0 87.5 -25.5t96.5 -51t74 -25.5q32 0 57 41q17 31 54 31q25 0 43 -18t18 -44q0 -18 -10 -31q-60 -102 -162 -102q-47 0 -102 25.5t-97 51t-59 25.5q-67 0 -100 -57q-17 -31 -54 -31q-25 0 -43 18t-18 44z" />
<glyph unicode="&#xd2;" d="M150 440v627q0 123 58 225.5t157 161.5t215 59q179 0 304.5 -131t125.5 -315v-627q0 -184 -125.5 -315t-304.5 -131q-180 0 -305 131t-125 315zM299 440q0 -120 84.5 -206.5t196.5 -86.5q118 0 199 88.5t81 204.5v627q0 119 -82 205t-198 86q-119 0 -200 -87t-81 -204 v-627zM322 1898q0 32 23 55t52 23q32 0 52 -26l182 -195q20 -17 20 -45q0 -31 -21.5 -53.5t-49.5 -22.5q-33 0 -56 23l-182 194q-20 20 -20 47z" />
<glyph unicode="&#xd3;" d="M150 440v627q0 123 58 225.5t157 161.5t215 59q179 0 304.5 -131t125.5 -315v-627q0 -184 -125.5 -315t-304.5 -131q-180 0 -305 131t-125 315zM299 440q0 -120 84.5 -206.5t196.5 -86.5q118 0 199 88.5t81 204.5v627q0 119 -82 205t-198 86q-119 0 -200 -87t-81 -204 v-627zM504 1710q0 28 20 45l183 195q20 26 51 26q29 0 52.5 -23.5t23.5 -54.5q0 -26 -21 -47l-182 -194q-23 -23 -56 -23q-28 0 -49.5 22.5t-21.5 53.5z" />
<glyph unicode="&#xd4;" d="M150 440v627q0 123 58 225.5t157 161.5t215 59q179 0 304.5 -131t125.5 -315v-627q0 -184 -125.5 -315t-304.5 -131q-180 0 -305 131t-125 315zM295 1681q0 25 27 52l206 206q26 23 52 23q23 0 49 -23l209 -206q26 -26 26 -52q0 -29 -19.5 -46t-43.5 -17q-25 0 -43 18 l-178 179l-179 -179q-18 -18 -43 -18q-27 0 -45 18t-18 45zM299 440q0 -120 84.5 -206.5t196.5 -86.5q118 0 199 88.5t81 204.5v627q0 119 -82 205t-198 86q-119 0 -200 -87t-81 -204v-627z" />
<glyph unicode="&#xd5;" d="M150 440v627q0 123 58 225.5t157 161.5t215 59q179 0 304.5 -131t125.5 -315v-627q0 -184 -125.5 -315t-304.5 -131q-180 0 -305 131t-125 315zM256 1698q0 15 8 31q69 118 207 118q37 0 87.5 -25.5t96.5 -51t74 -25.5q32 0 57 41q17 31 54 31q25 0 43 -18t18 -44 q0 -18 -10 -31q-60 -102 -162 -102q-47 0 -102 25.5t-97 51t-59 25.5q-67 0 -100 -57q-17 -31 -54 -31q-25 0 -43 18t-18 44zM299 440q0 -120 84.5 -206.5t196.5 -86.5q118 0 199 88.5t81 204.5v627q0 119 -82 205t-198 86q-119 0 -200 -87t-81 -204v-627z" />
<glyph unicode="&#xd6;" d="M150 440v627q0 123 58 225.5t157 161.5t215 59q179 0 304.5 -131t125.5 -315v-627q0 -184 -125.5 -315t-304.5 -131q-180 0 -305 131t-125 315zM254 1765q0 53 35.5 91t87.5 38q56 0 90.5 -39.5t34.5 -89.5q0 -53 -36.5 -90t-88.5 -37q-53 0 -88 38.5t-35 88.5zM299 440 q0 -120 84.5 -206.5t196.5 -86.5q118 0 199 88.5t81 204.5v627q0 119 -82 205t-198 86q-119 0 -200 -87t-81 -204v-627zM657 1765q0 53 36 91t89 38q54 0 88.5 -39.5t34.5 -89.5q0 -52 -35.5 -89.5t-87.5 -37.5t-88.5 37t-36.5 90z" />
<glyph unicode="&#xd7;" d="M157 165q0 29 25 52l293 293l-293 295q-24 24 -24 52t24 52q23 25 51.5 25t53.5 -25l293 -293l292 293q23 23 51.5 23t53.5 -25q25 -23 25 -51t-23 -51l-293 -293l293 -295q22 -22 21.5 -50.5t-23.5 -51.5q-23 -25 -52.5 -25t-52.5 23l-292 293l-293 -293 q-23 -23 -52.5 -23t-52.5 23q-25 23 -25 52z" />
<glyph unicode="&#xd8;" d="M150 440v627q0 123 58 225.5t157 161.5t215 59q171 0 294 -120l19 30q13 23 38 29t48 -6q22 -12 28 -37t-8 -47l-45 -78q56 -101 56 -217v-627q0 -184 -125.5 -315t-304.5 -131q-174 0 -297 123l-17 -27q-12 -23 -37.5 -29t-46.5 7q-22 12 -28 37t6 47l43 73 q-53 95 -53 215zM299 440q0 -7 1 -21t1 -20l494 854q-39 48 -95.5 76.5t-119.5 28.5q-119 0 -200 -87t-81 -204v-627zM362 258q40 -52 98 -81.5t120 -29.5q118 0 199 88.5t81 204.5v627q0 15 -4 47z" />
<glyph unicode="&#xd9;" d="M150 449v987q0 32 20.5 54.5t52.5 22.5q30 0 52 -23t22 -54v-987q0 -120 82 -207.5t201 -87.5t200.5 89t81.5 206v987q0 31 21 54t53 23q30 0 52 -23t22 -54v-987q0 -188 -126 -318.5t-304 -130.5q-121 0 -220.5 62.5t-154.5 165.5t-55 221zM322 1898q0 32 23 55t52 23 q32 0 52 -26l182 -195q20 -17 20 -45q0 -31 -21.5 -53.5t-49.5 -22.5q-33 0 -56 23l-182 194q-20 20 -20 47z" />
<glyph unicode="&#xda;" d="M150 449v987q0 32 20.5 54.5t52.5 22.5q30 0 52 -23t22 -54v-987q0 -120 82 -207.5t201 -87.5t200.5 89t81.5 206v987q0 31 21 54t53 23q30 0 52 -23t22 -54v-987q0 -188 -126 -318.5t-304 -130.5q-121 0 -220.5 62.5t-154.5 165.5t-55 221zM504 1710q0 28 20 45l183 195 q20 26 51 26q29 0 52.5 -23.5t23.5 -54.5q0 -26 -21 -47l-182 -194q-23 -23 -56 -23q-28 0 -49.5 22.5t-21.5 53.5z" />
<glyph unicode="&#xdb;" d="M150 449v987q0 32 20.5 54.5t52.5 22.5q30 0 52 -23t22 -54v-987q0 -120 82 -207.5t201 -87.5t200.5 89t81.5 206v987q0 31 21 54t53 23q30 0 52 -23t22 -54v-987q0 -188 -126 -318.5t-304 -130.5q-121 0 -220.5 62.5t-154.5 165.5t-55 221zM295 1681q0 25 27 52l206 206 q26 23 52 23q23 0 49 -23l209 -206q26 -26 26 -52q0 -29 -19.5 -46t-43.5 -17q-25 0 -43 18l-178 179l-179 -179q-18 -18 -43 -18q-27 0 -45 18t-18 45z" />
<glyph unicode="&#xdc;" d="M150 449v987q0 32 20.5 54.5t52.5 22.5q30 0 52 -23t22 -54v-987q0 -120 82 -207.5t201 -87.5t200.5 89t81.5 206v987q0 31 21 54t53 23q30 0 52 -23t22 -54v-987q0 -188 -126 -318.5t-304 -130.5q-121 0 -220.5 62.5t-154.5 165.5t-55 221zM254 1765q0 53 35.5 91 t87.5 38q56 0 90.5 -39.5t34.5 -89.5q0 -53 -36.5 -90t-88.5 -37q-53 0 -88 38.5t-35 88.5zM657 1765q0 53 36 91t89 38q54 0 88.5 -39.5t34.5 -89.5q0 -52 -35.5 -89.5t-87.5 -37.5t-88.5 37t-36.5 90z" />
<glyph unicode="&#xdd;" d="M162 1436q0 31 22.5 54t51.5 23q44 0 65 -43l279 -548l278 548q21 43 66 43q29 0 51 -23t22 -54q0 -14 -10 -37l-334 -662v-659q0 -35 -22.5 -56.5t-50.5 -21.5q-30 0 -52 22.5t-22 55.5v659l-334 662q-10 23 -10 37zM504 1710q0 28 20 45l183 195q20 26 51 26 q29 0 52.5 -23.5t23.5 -54.5q0 -26 -21 -47l-182 -194q-23 -23 -56 -23q-28 0 -49.5 22.5t-21.5 53.5z" />
<glyph unicode="&#xde;" d="M176 78v1358q0 31 22 54t52 23q32 0 54 -22.5t22 -54.5v-166h252q122 0 225 -63.5t162 -170.5t59 -231t-59 -231t-162 -170.5t-225 -63.5h-252v-262q0 -32 -22 -55t-54 -23q-30 0 -52 23.5t-22 54.5zM326 496h260q116 3 200.5 91t87.5 210v8v8q-3 124 -90 212.5 t-206 88.5h-252v-618z" />
<glyph unicode="&#xdf;" d="M158 78v1075q0 159 94 259.5t246 100.5q155 0 258.5 -104.5t103.5 -261.5q0 -72 -29 -127.5t-104 -130.5q132 -51 203 -157t71 -249q0 -142 -68 -254.5t-172 -170.5t-218 -58q-61 0 -86 19t-25 57q0 26 9 43.5t25.5 25t29.5 10t32 3.5q147 9 233.5 94.5t86.5 230.5 q0 49 -11 90t-27.5 69.5t-45.5 52t-54 38t-64.5 27.5t-66 19.5t-69.5 15.5q-40 8 -59 24t-19 51q0 23 8 39.5t22 24.5t25.5 11t26.5 5q98 17 145.5 70t47.5 131q0 93 -59 149t-142 56q-85 0 -140 -57.5t-55 -145.5v-1075q0 -33 -22.5 -55.5t-55.5 -22.5q-32 0 -53.5 22.5 t-21.5 55.5z" />
<glyph unicode="&#xe0;" d="M131 295q0 134 92.5 215.5t241.5 83.5q194 2 258.5 6t91.5 18q31 28 31 66q0 72 -74.5 127t-185.5 55q-85 0 -155 -36.5t-107 -106.5q-22 -43 -64 -43q-33 0 -53.5 18.5t-20.5 53.5q0 64 65.5 125t161 97t185.5 36q94 0 182.5 -40t147.5 -116.5t59 -169.5v-612 q0 -32 -22 -52t-50 -20q-29 0 -49 20.5t-20 51.5v94q-65 -86 -168.5 -126t-210.5 -40q-157 0 -246.5 81.5t-89.5 213.5zM279 305q0 -85 55.5 -122.5t161.5 -37.5q155 0 252.5 72.5t97.5 204.5v96q-49 -26 -117 -33t-242 -10q-101 -2 -154.5 -45t-53.5 -125zM332 1395 q0 31 23.5 54.5t52.5 23.5q30 0 51 -27l182 -195q21 -18 21 -45q0 -30 -22 -53t-50 -23q-32 0 -55 23l-183 195q-20 20 -20 47z" />
<glyph unicode="&#xe1;" d="M131 295q0 134 92.5 215.5t241.5 83.5q194 2 258.5 6t91.5 18q31 28 31 66q0 72 -74.5 127t-185.5 55q-85 0 -155 -36.5t-107 -106.5q-22 -43 -64 -43q-33 0 -53.5 18.5t-20.5 53.5q0 64 65.5 125t161 97t185.5 36q94 0 182.5 -40t147.5 -116.5t59 -169.5v-612 q0 -32 -22 -52t-50 -20q-29 0 -49 20.5t-20 51.5v94q-65 -86 -168.5 -126t-210.5 -40q-157 0 -246.5 81.5t-89.5 213.5zM279 305q0 -85 55.5 -122.5t161.5 -37.5q155 0 252.5 72.5t97.5 204.5v96q-49 -26 -117 -33t-242 -10q-101 -2 -154.5 -45t-53.5 -125zM514 1206 q0 27 21 45l182 195q21 27 51 27q29 0 52.5 -23.5t23.5 -54.5q0 -26 -21 -47l-182 -195q-23 -23 -55 -23q-28 0 -50 23t-22 53z" />
<glyph unicode="&#xe2;" d="M131 295q0 134 92.5 215.5t241.5 83.5q194 2 258.5 6t91.5 18q31 28 31 66q0 72 -74.5 127t-185.5 55q-85 0 -155 -36.5t-107 -106.5q-22 -43 -64 -43q-33 0 -53.5 18.5t-20.5 53.5q0 64 65.5 125t161 97t185.5 36q94 0 182.5 -40t147.5 -116.5t59 -169.5v-612 q0 -32 -22 -52t-50 -20q-29 0 -49 20.5t-20 51.5v94q-65 -86 -168.5 -126t-210.5 -40q-157 0 -246.5 81.5t-89.5 213.5zM279 305q0 -85 55.5 -122.5t161.5 -37.5q155 0 252.5 72.5t97.5 204.5v96q-49 -26 -117 -33t-242 -10q-101 -2 -154.5 -45t-53.5 -125zM305 1178 q0 24 27 51l207 207q25 22 51 22q24 0 49 -22l209 -207q26 -26 26 -51q0 -29 -19.5 -46.5t-43.5 -17.5t-43 19l-178 178l-178 -178q-19 -19 -43 -19q-27 0 -45.5 18.5t-18.5 45.5z" />
<glyph unicode="&#xe3;" d="M131 295q0 134 92.5 215.5t241.5 83.5q194 2 258.5 6t91.5 18q31 28 31 66q0 72 -74.5 127t-185.5 55q-85 0 -155 -36.5t-107 -106.5q-22 -43 -64 -43q-33 0 -53.5 18.5t-20.5 53.5q0 64 65.5 125t161 97t185.5 36q94 0 182.5 -40t147.5 -116.5t59 -169.5v-612 q0 -32 -22 -52t-50 -20q-29 0 -49 20.5t-20 51.5v94q-65 -86 -168.5 -126t-210.5 -40q-157 0 -246.5 81.5t-89.5 213.5zM266 1194q0 15 8 31q69 118 207 118q37 0 87.5 -25.5t96.5 -51t74 -25.5q33 0 58 41q17 31 53 31q25 0 43 -18t18 -44q0 -17 -10 -30 q-61 -103 -162 -103q-47 0 -102 26t-97 51.5t-59 25.5q-66 0 -100 -58q-17 -30 -53 -30q-25 0 -43.5 17.5t-18.5 43.5zM279 305q0 -85 55.5 -122.5t161.5 -37.5q155 0 252.5 72.5t97.5 204.5v96q-49 -26 -117 -33t-242 -10q-101 -2 -154.5 -45t-53.5 -125z" />
<glyph unicode="&#xe4;" d="M131 295q0 134 92.5 215.5t241.5 83.5q194 2 258.5 6t91.5 18q31 28 31 66q0 72 -74.5 127t-185.5 55q-85 0 -155 -36.5t-107 -106.5q-22 -43 -64 -43q-33 0 -53.5 18.5t-20.5 53.5q0 64 65.5 125t161 97t185.5 36q94 0 182.5 -40t147.5 -116.5t59 -169.5v-612 q0 -32 -22 -52t-50 -20q-29 0 -49 20.5t-20 51.5v94q-65 -86 -168.5 -126t-210.5 -40q-157 0 -246.5 81.5t-89.5 213.5zM264 1262q0 53 35.5 91t87.5 38q56 0 90.5 -39.5t34.5 -89.5q0 -53 -36.5 -90t-88.5 -37q-53 0 -88 38.5t-35 88.5zM279 305q0 -85 55.5 -122.5 t161.5 -37.5q155 0 252.5 72.5t97.5 204.5v96q-49 -26 -117 -33t-242 -10q-101 -2 -154.5 -45t-53.5 -125zM668 1262q0 53 36 91t89 38q54 0 88 -39.5t34 -89.5q0 -52 -35 -89.5t-87 -37.5t-88.5 37t-36.5 90z" />
<glyph unicode="&#xe5;" d="M131 295q0 134 92.5 215.5t241.5 83.5q194 2 258.5 6t91.5 18q31 28 31 66q0 72 -74.5 127t-185.5 55q-85 0 -155 -36.5t-107 -106.5q-22 -43 -64 -43q-33 0 -53.5 18.5t-20.5 53.5q0 64 65.5 125t161 97t185.5 36q94 0 182.5 -40t147.5 -116.5t59 -169.5v-612 q0 -32 -22 -52t-50 -20q-29 0 -49 20.5t-20 51.5v94q-65 -86 -168.5 -126t-210.5 -40q-157 0 -246.5 81.5t-89.5 213.5zM279 305q0 -85 55.5 -122.5t161.5 -37.5q155 0 252.5 72.5t97.5 204.5v96q-49 -26 -117 -33t-242 -10q-101 -2 -154.5 -45t-53.5 -125zM399 1325 q0 78 55 134.5t136 56.5q78 0 134 -55t56 -136q0 -78 -54.5 -134t-135.5 -56q-78 0 -134.5 55t-56.5 135zM494 1325q0 -41 27.5 -68.5t68.5 -27.5t68.5 27.5t27.5 68.5t-27.5 68.5t-68.5 27.5t-68.5 -27.5t-27.5 -68.5z" />
<glyph unicode="&#xe6;" d="M90 281v71q0 121 83 202t198 81h137v151q0 33 -37 56.5t-84 23.5q-41 0 -75.5 -17.5t-43.5 -43.5q-10 -30 -37 -39q-16 -4 -26 -4q-52 0 -70 41q-4 20 -4 28q0 11 4 27q29 73 100 112.5t152 39.5q123 0 205 -82q35 38 87.5 60t108.5 22q115 0 198 -82t83 -199v-166 q0 -31 -20 -51t-52 -20h-346v-211q0 -57 39.5 -97.5t97.5 -40.5q80 0 121 72q14 25 43 35q12 4 21 4q21 0 39.5 -14.5t27.5 -38.5q4 -16 4 -23q0 -62 -85.5 -120t-170.5 -58q-121 0 -208 94q-88 -94 -209 -94q-114 0 -197.5 82t-83.5 199zM233 281q0 -57 40 -97.5t98 -40.5 q57 0 97 40t40 98v211h-137q-57 0 -97.5 -41t-40.5 -99v-71zM651 635h275v94q0 58 -39.5 97.5t-98.5 39.5q-57 0 -97 -39.5t-40 -97.5v-94z" />
<glyph unicode="&#xe7;" d="M207 442v125q0 121 60.5 223.5t161 161t214.5 58.5q118 0 221.5 -62.5t159.5 -167.5q10 -20 10 -37q0 -29 -22.5 -51t-53.5 -22q-22 0 -37.5 11t-36.5 41t-24 34q-38 47 -96 74.5t-121 27.5q-118 0 -202.5 -86t-84.5 -205v-125q0 -120 84 -205t203 -85q72 0 134.5 34.5 t103.5 96.5q10 23 32 41t48 18q29 0 51 -23t22 -53q0 -22 -10 -37q-49 -92 -138 -152.5t-192 -72.5l-92 -174q76 0 111 -40t35 -103q0 -93 -71.5 -142t-211.5 -49h-64q-25 0 -41 14.5t-16 43.5q0 27 15 42t42 15h72q160 0 160 76q0 20 -10 34.5t-23 21.5t-35.5 11.5t-36 5.5 t-36.5 2q-25 0 -25 17q0 8 6 20l102 207q-156 25 -262 151t-106 285z" />
<glyph unicode="&#xe8;" d="M162 442v125q0 183 128.5 313t315.5 130q193 0 312.5 -141t119.5 -347q0 -42 -21 -64t-54 -22h-650q0 -121 86.5 -202.5t208.5 -81.5q46 0 83.5 11.5t67.5 36.5t48.5 46.5t44.5 56.5q27 39 63 39q29 0 53.5 -21t24.5 -47q0 -22 -10 -45q-36 -88 -147.5 -158.5 t-237.5 -70.5q-179 0 -307.5 130.5t-128.5 311.5zM313 588h570q-18 131 -93.5 200.5t-185.5 69.5q-121 0 -203 -79t-88 -191zM348 1395q0 31 23.5 54.5t52.5 23.5q30 0 51 -27l182 -195q21 -18 21 -45q0 -30 -22 -53t-50 -23q-32 0 -55 23l-182 195q-21 21 -21 47z" />
<glyph unicode="&#xe9;" d="M162 442v125q0 183 128.5 313t315.5 130q193 0 312.5 -141t119.5 -347q0 -42 -21 -64t-54 -22h-650q0 -121 86.5 -202.5t208.5 -81.5q46 0 83.5 11.5t67.5 36.5t48.5 46.5t44.5 56.5q27 39 63 39q29 0 53.5 -21t24.5 -47q0 -22 -10 -45q-36 -88 -147.5 -158.5 t-237.5 -70.5q-179 0 -307.5 130.5t-128.5 311.5zM313 588h570q-18 131 -93.5 200.5t-185.5 69.5q-121 0 -203 -79t-88 -191zM530 1206q0 27 21 45l182 195q21 27 51 27q29 0 52.5 -23.5t23.5 -54.5q0 -27 -20 -47l-183 -195q-23 -23 -55 -23q-28 0 -50 23t-22 53z" />
<glyph unicode="&#xea;" d="M162 442v125q0 183 128.5 313t315.5 130q193 0 312.5 -141t119.5 -347q0 -42 -21 -64t-54 -22h-650q0 -121 86.5 -202.5t208.5 -81.5q46 0 83.5 11.5t67.5 36.5t48.5 46.5t44.5 56.5q27 39 63 39q29 0 53.5 -21t24.5 -47q0 -22 -10 -45q-36 -88 -147.5 -158.5 t-237.5 -70.5q-179 0 -307.5 130.5t-128.5 311.5zM313 588h570q-18 131 -93.5 200.5t-185.5 69.5q-121 0 -203 -79t-88 -191zM322 1178q0 25 26 51l207 207q25 22 51 22q24 0 49 -22l209 -207q27 -27 27 -51q0 -29 -20 -46.5t-44 -17.5t-43 19l-178 178l-178 -178 q-19 -19 -43 -19q-27 0 -45 18t-18 46z" />
<glyph unicode="&#xeb;" d="M162 442v125q0 183 128.5 313t315.5 130q193 0 312.5 -141t119.5 -347q0 -42 -21 -64t-54 -22h-650q0 -121 86.5 -202.5t208.5 -81.5q46 0 83.5 11.5t67.5 36.5t48.5 46.5t44.5 56.5q27 39 63 39q29 0 53.5 -21t24.5 -47q0 -22 -10 -45q-36 -88 -147.5 -158.5 t-237.5 -70.5q-179 0 -307.5 130.5t-128.5 311.5zM281 1262q0 53 35 91t87 38q56 0 90.5 -39.5t34.5 -89.5q0 -53 -36.5 -90t-88.5 -37q-53 0 -87.5 38.5t-34.5 88.5zM313 588h570q-18 131 -93.5 200.5t-185.5 69.5q-121 0 -203 -79t-88 -191zM684 1262q0 53 36 91t89 38 q54 0 88.5 -39.5t34.5 -89.5q0 -52 -35.5 -89.5t-87.5 -37.5t-88.5 37t-36.5 90z" />
<glyph unicode="&#xec;" d="M121 78q0 29 22.5 53.5t53.5 24.5h348v698h-348q-32 0 -54 23t-22 55q0 29 22.5 53.5t53.5 24.5h424q30 0 52.5 -23.5t22.5 -54.5v-776h287q31 0 53.5 -23.5t22.5 -54.5q0 -32 -22 -55t-54 -23h-786q-32 0 -54 23t-22 55zM362 1395q0 31 23.5 54.5t52.5 23.5q30 0 51 -27 l183 -195q20 -17 20 -45q0 -31 -21.5 -53.5t-49.5 -22.5q-33 0 -56 23l-182 195q-21 21 -21 47z" />
<glyph unicode="&#xed;" d="M121 78q0 29 22.5 53.5t53.5 24.5h348v698h-348q-32 0 -54 23t-22 55q0 29 22.5 53.5t53.5 24.5h424q30 0 52.5 -23.5t22.5 -54.5v-776h287q31 0 53.5 -23.5t22.5 -54.5q0 -32 -22 -55t-54 -23h-786q-32 0 -54 23t-22 55zM545 1206q0 28 20 45l183 195q21 27 51 27 q29 0 52 -23.5t23 -54.5q0 -27 -20 -47l-182 -195q-23 -23 -56 -23q-28 0 -49.5 22.5t-21.5 53.5z" />
<glyph unicode="&#xee;" d="M121 78q0 29 22.5 53.5t53.5 24.5h348v698h-348q-32 0 -54 23t-22 55q0 29 22.5 53.5t53.5 24.5h424q30 0 52.5 -23.5t22.5 -54.5v-776h287q31 0 53.5 -23.5t22.5 -54.5q0 -32 -22 -55t-54 -23h-786q-32 0 -54 23t-22 55zM336 1178q0 25 26 51l207 207q25 22 52 22 q24 0 49 -22l209 -207q26 -26 26 -51q0 -29 -19.5 -46.5t-43.5 -17.5t-43 19l-178 178l-179 -178q-19 -19 -43 -19q-27 0 -45 18t-18 46z" />
<glyph unicode="&#xef;" d="M121 78q0 29 22.5 53.5t53.5 24.5h348v698h-348q-32 0 -54 23t-22 55q0 29 22.5 53.5t53.5 24.5h424q30 0 52.5 -23.5t22.5 -54.5v-776h287q31 0 53.5 -23.5t22.5 -54.5q0 -32 -22 -55t-54 -23h-786q-32 0 -54 23t-22 55zM295 1262q0 53 35.5 91t87.5 38q56 0 90.5 -39.5 t34.5 -89.5q0 -53 -36.5 -90t-88.5 -37q-53 0 -88 38.5t-35 88.5zM698 1262q0 53 36 91t89 38q54 0 88.5 -39.5t34.5 -89.5q0 -52 -35.5 -89.5t-87.5 -37.5t-88.5 37t-36.5 90z" />
<glyph unicode="&#xf0;" d="M141 442v125q0 181 128 312t311 131q109 0 198 -47q-72 141 -192 249l-103 -133q-17 -24 -49 -24q-25 0 -43 17.5t-18 43.5q0 22 12 37l102 133q-55 38 -127 70q-19 8 -31 26t-12 41q0 31 21.5 52.5t52.5 21.5q19 0 31 -6q96 -44 158 -88l65 86q17 24 49 24 q25 0 43.5 -17.5t18.5 -43.5q0 -21 -13 -37l-67 -88q161 -145 251.5 -344t90.5 -410v-6v-125q0 -185 -129.5 -313.5t-308.5 -128.5q-122 0 -223.5 61t-158.5 162.5t-57 218.5zM293 442q0 -121 86 -205.5t201 -84.5q118 0 202 85.5t84 204.5v125q0 120 -83 205.5t-203 85.5 q-122 0 -204.5 -86.5t-82.5 -204.5v-125z" />
<glyph unicode="&#xf1;" d="M162 76v858q0 31 22 53.5t54 22.5t53.5 -22.5t21.5 -53.5v-107q59 95 133 139t191 44q193 0 297 -112t104 -331v-491q0 -31 -22 -53.5t-53 -22.5t-53.5 22.5t-22.5 53.5v491q0 143 -72 217t-199 74q-144 0 -223.5 -87t-79.5 -204v-491q0 -31 -22 -53.5t-53 -22.5 t-53.5 22.5t-22.5 53.5zM276 1194q0 13 9 31q69 118 207 118q46 0 136 -51t122 -51t57 41q17 31 53 31q25 0 43.5 -18t18.5 -44q0 -15 -11 -30q-61 -103 -161 -103q-47 0 -102 26t-97 51.5t-59 25.5q-67 0 -101 -58q-17 -30 -53 -30q-25 0 -43.5 17.5t-18.5 43.5z" />
<glyph unicode="&#xf2;" d="M141 442v125q0 181 128 312t311 131q123 0 224.5 -61.5t157.5 -163t56 -218.5v-125q0 -185 -129.5 -313.5t-308.5 -128.5q-122 0 -223.5 61t-158.5 162.5t-57 218.5zM293 442q0 -121 86 -205.5t201 -84.5q118 0 202 85.5t84 204.5v125q0 120 -83 205.5t-203 85.5 q-122 0 -204.5 -86.5t-82.5 -204.5v-125zM322 1395q0 31 23 54.5t52 23.5q31 0 52 -27l182 -195q20 -17 20 -45q0 -31 -21.5 -53.5t-49.5 -22.5q-33 0 -56 23l-182 195q-20 20 -20 47z" />
<glyph unicode="&#xf3;" d="M141 442v125q0 181 128 312t311 131q123 0 224.5 -61.5t157.5 -163t56 -218.5v-125q0 -185 -129.5 -313.5t-308.5 -128.5q-122 0 -223.5 61t-158.5 162.5t-57 218.5zM293 442q0 -121 86 -205.5t201 -84.5q118 0 202 85.5t84 204.5v125q0 120 -83 205.5t-203 85.5 q-122 0 -204.5 -86.5t-82.5 -204.5v-125zM504 1206q0 28 20 45l183 195q21 27 51 27q29 0 52.5 -23.5t23.5 -54.5q0 -26 -21 -47l-182 -195q-23 -23 -56 -23q-28 0 -49.5 22.5t-21.5 53.5z" />
<glyph unicode="&#xf4;" d="M141 442v125q0 181 128 312t311 131q123 0 224.5 -61.5t157.5 -163t56 -218.5v-125q0 -185 -129.5 -313.5t-308.5 -128.5q-122 0 -223.5 61t-158.5 162.5t-57 218.5zM293 442q0 -121 86 -205.5t201 -84.5q118 0 202 85.5t84 204.5v125q0 120 -83 205.5t-203 85.5 q-122 0 -204.5 -86.5t-82.5 -204.5v-125zM295 1178q0 24 27 51l206 207q25 22 52 22q24 0 49 -22l209 -207q26 -26 26 -51q0 -29 -19.5 -46.5t-43.5 -17.5t-43 19l-178 178l-179 -178q-19 -19 -43 -19q-26 0 -44.5 18t-18.5 46z" />
<glyph unicode="&#xf5;" d="M141 442v125q0 181 128 312t311 131q123 0 224.5 -61.5t157.5 -163t56 -218.5v-125q0 -185 -129.5 -313.5t-308.5 -128.5q-122 0 -223.5 61t-158.5 162.5t-57 218.5zM256 1194q0 15 8 31q69 118 207 118q37 0 87.5 -25.5t96.5 -51t74 -25.5q32 0 57 41q17 31 54 31 q25 0 43 -18t18 -44q0 -17 -10 -30q-61 -103 -162 -103q-47 0 -102 26t-97 51.5t-59 25.5q-66 0 -100 -58q-17 -30 -54 -30q-25 0 -43 17.5t-18 43.5zM293 442q0 -121 86 -205.5t201 -84.5q118 0 202 85.5t84 204.5v125q0 120 -83 205.5t-203 85.5q-122 0 -204.5 -86.5 t-82.5 -204.5v-125z" />
<glyph unicode="&#xf6;" d="M141 442v125q0 181 128 312t311 131q123 0 224.5 -61.5t157.5 -163t56 -218.5v-125q0 -185 -129.5 -313.5t-308.5 -128.5q-122 0 -223.5 61t-158.5 162.5t-57 218.5zM254 1262q0 53 35.5 91t87.5 38q56 0 90.5 -39.5t34.5 -89.5q0 -53 -36.5 -90t-88.5 -37 q-53 0 -88 38.5t-35 88.5zM293 442q0 -121 86 -205.5t201 -84.5q118 0 202 85.5t84 204.5v125q0 120 -83 205.5t-203 85.5q-122 0 -204.5 -86.5t-82.5 -204.5v-125zM657 1262q0 53 36 91t89 38q54 0 88.5 -39.5t34.5 -89.5q0 -52 -35.5 -89.5t-87.5 -37.5t-88.5 37t-36.5 90 z" />
<glyph unicode="&#xf7;" d="M57 498q0 34 25 59q28 25 61 25h873q33 0 61 -25q25 -25 25 -59q0 -35 -25 -60q-26 -26 -61 -26h-873q-35 0 -61 26q-25 25 -25 60zM483 115q0 42 33 80q35 32 82 32t82 -32q33 -38 33 -80q0 -41 -33 -82q-41 -33 -82 -33t-82 33q-33 41 -33 82zM483 879q0 46 33 79 q36 33 82 33t82 -33q33 -33 33 -79q0 -42 -33 -80q-36 -33 -82 -33t-82 33q-33 38 -33 80z" />
<glyph unicode="&#xf8;" d="M141 442v125q0 181 128 312t311 131q108 0 204 -52l52 91q10 19 30 24t39 -6q17 -9 22.5 -30t-5.5 -38l-56 -96q72 -64 112 -151.5t40 -184.5v-125q0 -185 -129.5 -313.5t-308.5 -128.5q-111 0 -205 51l-51 -90q-10 -19 -30.5 -24t-39.5 6q-17 10 -22 30t4 37l57 99 q-71 62 -111.5 149.5t-40.5 183.5zM293 442q0 -111 78 -196l338 581q-60 31 -129 31q-122 0 -204.5 -86.5t-82.5 -204.5v-125zM453 184q62 -32 127 -32q118 0 202 85.5t84 204.5v125q0 117 -78 201z" />
<glyph unicode="&#xf9;" d="M141 442v492q0 31 22.5 53.5t53.5 22.5t53.5 -22.5t22.5 -53.5v-492q0 -144 71 -217t203 -73t215 86q84 87 84 204v492q0 31 22.5 53.5t53.5 22.5t53.5 -22.5t22.5 -53.5v-858q0 -32 -22 -54t-54 -22t-54 22t-22 54v114q-63 -100 -143 -145t-195 -45q-190 0 -288.5 112 t-98.5 330zM322 1395q0 31 23 54.5t52 23.5q31 0 52 -27l182 -195q20 -17 20 -45q0 -31 -21.5 -53.5t-49.5 -22.5q-33 0 -56 23l-182 195q-20 20 -20 47z" />
<glyph unicode="&#xfa;" d="M141 442v492q0 31 22.5 53.5t53.5 22.5t53.5 -22.5t22.5 -53.5v-492q0 -144 71 -217t203 -73t215 86q84 87 84 204v492q0 31 22.5 53.5t53.5 22.5t53.5 -22.5t22.5 -53.5v-858q0 -32 -22 -54t-54 -22t-54 22t-22 54v114q-63 -100 -143 -145t-195 -45q-190 0 -288.5 112 t-98.5 330zM504 1206q0 28 20 45l183 195q21 27 51 27q29 0 52.5 -23.5t23.5 -54.5q0 -26 -21 -47l-182 -195q-23 -23 -56 -23q-28 0 -49.5 22.5t-21.5 53.5z" />
<glyph unicode="&#xfb;" d="M141 442v492q0 31 22.5 53.5t53.5 22.5t53.5 -22.5t22.5 -53.5v-492q0 -144 71 -217t203 -73t215 86q84 87 84 204v492q0 31 22.5 53.5t53.5 22.5t53.5 -22.5t22.5 -53.5v-858q0 -32 -22 -54t-54 -22t-54 22t-22 54v114q-63 -100 -143 -145t-195 -45q-190 0 -288.5 112 t-98.5 330zM295 1178q0 24 27 51l206 207q25 22 52 22q24 0 49 -22l209 -207q26 -26 26 -51q0 -29 -19.5 -46.5t-43.5 -17.5t-43 19l-178 178l-179 -178q-19 -19 -43 -19q-26 0 -44.5 18t-18.5 46z" />
<glyph unicode="&#xfc;" d="M141 442v492q0 31 22.5 53.5t53.5 22.5t53.5 -22.5t22.5 -53.5v-492q0 -144 71 -217t203 -73t215 86q84 87 84 204v492q0 31 22.5 53.5t53.5 22.5t53.5 -22.5t22.5 -53.5v-858q0 -32 -22 -54t-54 -22t-54 22t-22 54v114q-63 -100 -143 -145t-195 -45q-190 0 -288.5 112 t-98.5 330zM254 1262q0 53 35.5 91t87.5 38q56 0 90.5 -39.5t34.5 -89.5q0 -53 -36.5 -90t-88.5 -37q-53 0 -88 38.5t-35 88.5zM657 1262q0 53 36 91t89 38q54 0 88.5 -39.5t34.5 -89.5q0 -52 -35.5 -89.5t-87.5 -37.5t-88.5 37t-36.5 90z" />
<glyph unicode="&#xfd;" d="M182 932q0 33 25.5 56.5t52.5 23.5q21 0 40.5 -14t27.5 -35l293 -713l292 713q8 21 27.5 35t40.5 14q30 0 54 -24t24 -56q0 -14 -6 -29l-547 -1327q-9 -22 -28 -34.5t-42 -12.5q-31 0 -53.5 22t-22.5 54q0 13 7 30l172 418l-351 850q-6 15 -6 29zM545 1206q0 28 20 45 l183 195q21 27 51 27q29 0 52 -23.5t23 -54.5q0 -27 -20 -47l-182 -195q-23 -23 -56 -23q-28 0 -49.5 22.5t-21.5 53.5z" />
<glyph unicode="&#xfe;" d="M162 -393v1831q0 31 22.5 53t53.5 22t53 -22t22 -53v-600q114 172 308 172q168 -3 292.5 -137t124.5 -316v-104q0 -186 -117.5 -319.5t-287.5 -133.5q-189 0 -320 174v-567q0 -33 -21.5 -55.5t-53.5 -22.5t-54 23t-22 55zM313 453q0 -123 83.5 -210t203.5 -87 q121 0 204 86.5t83 210.5v104q0 121 -81.5 210t-205.5 89q-121 0 -204 -88.5t-83 -210.5v-104z" />
<glyph unicode="&#xff;" d="M182 932q0 33 25.5 56.5t52.5 23.5q21 0 40.5 -14t27.5 -35l293 -713l292 713q8 21 27.5 35t40.5 14q30 0 54 -24t24 -56q0 -14 -6 -29l-547 -1327q-9 -22 -28 -34.5t-42 -12.5q-31 0 -53.5 22t-22.5 54q0 13 7 30l172 418l-351 850q-6 15 -6 29zM295 1262q0 53 35.5 91 t87.5 38q56 0 90.5 -39.5t34.5 -89.5q0 -53 -36.5 -90t-88.5 -37q-53 0 -88 38.5t-35 88.5zM698 1262q0 53 36 91t89 38q54 0 88.5 -39.5t34.5 -89.5q0 -52 -35.5 -89.5t-87.5 -37.5t-88.5 37t-36.5 90z" />
<glyph unicode="&#x152;" d="M61 334v846q0 139 94 236t226 97q101 0 180 -57q6 25 25 41t45 16h401q30 0 51 -23t21 -56q0 -34 -22 -55t-50 -21h-327v-524h299q30 0 51.5 -22.5t21.5 -55.5q0 -34 -22.5 -55t-50.5 -21h-299v-526h327q29 0 50.5 -23t21.5 -55q0 -33 -22.5 -54.5t-49.5 -21.5h-401 q-25 0 -44.5 15.5t-25.5 41.5q-79 -57 -180 -57q-134 0 -227 98t-93 236zM209 332q0 -74 52 -128t120 -54q73 0 123.5 55.5t50.5 126.5v850q0 74 -51 127t-123 53t-122 -54t-50 -126v-850z" />
<glyph unicode="&#x153;" d="M90 281v448q0 117 83.5 199t197.5 82q77 0 128 -20t93 -62q35 38 87.5 60t108.5 22q115 0 198 -82t83 -199v-166q0 -31 -20 -51t-52 -20h-346v-211q0 -57 39.5 -97.5t97.5 -40.5q80 0 121 72q14 25 43 35q12 4 21 4q21 0 39.5 -14.5t27.5 -38.5q4 -16 4 -23 q0 -62 -85.5 -120t-170.5 -58q-121 0 -208 94q-88 -94 -209 -94q-114 0 -197.5 82t-83.5 199zM233 281q0 -57 40 -97.5t98 -40.5q57 0 97 40t40 98v485q0 36 -41 68t-96 32q-58 0 -98 -40t-40 -97v-448zM651 635h275v94q0 58 -39.5 97.5t-98.5 39.5q-57 0 -97 -39.5 t-40 -97.5v-94z" />
<glyph unicode="&#x178;" d="M162 1436q0 31 22.5 54t51.5 23q44 0 65 -43l279 -548l278 548q21 43 66 43q29 0 51 -23t22 -54q0 -14 -10 -37l-334 -662v-659q0 -35 -22.5 -56.5t-50.5 -21.5q-30 0 -52 22.5t-22 55.5v659l-334 662q-10 23 -10 37zM254 1765q0 53 35.5 91t87.5 38q56 0 90.5 -39.5 t34.5 -89.5q0 -53 -36.5 -90t-88.5 -37q-53 0 -88 38.5t-35 88.5zM657 1765q0 53 36 91t89 38q54 0 88.5 -39.5t34.5 -89.5q0 -52 -35.5 -89.5t-87.5 -37.5t-88.5 37t-36.5 90z" />
<glyph unicode="&#x2c6;" d="M295 1243q0 16 8 27q8 13 19 24q9 15 22 25q15 12 27 27q5 5 19 21.5t22 25.5q6 6 17.5 18t21 21.5t18.5 17.5q5 5 59 53q32 21 52 21q16 0 51 -21q54 -48 59 -53q22 -19 55 -57q36 -40 43 -47q12 -15 27 -27q15 -11 23 -25q9 -9 18 -24q8 -11 8 -27q0 -28 -20 -45 q-18 -18 -43 -18t-43 18l-178 178l-179 -178q-18 -18 -43 -18t-43 18q-20 17 -20 45z" />
<glyph unicode="&#x2dc;" d="M246 1227q0 22 8 35q22 51 70 102q45 45 110 45q40 0 78 -14q32 -12 76 -33q66 -32 69 -33q32 -14 62 -14q24 0 39 12q14 14 24 29l27 28q16 13 43 13q29 0 45 -19t16 -47q0 -29 -12 -53q-8 -19 -33 -53q-31 -27 -49 -37q-25 -14 -57 -14q-39 0 -74 14q-32 12 -76 33 l-71 30q-37 15 -70 15q-37 0 -53 -19q-19 -19 -29 -39t-24 -41q-16 -16 -41 -16q-32 0 -54 25q-24 21 -24 51z" />
<glyph unicode="&#x2000;" horiz-adv-x="988" />
<glyph unicode="&#x2001;" horiz-adv-x="1976" />
<glyph unicode="&#x2002;" horiz-adv-x="988" />
<glyph unicode="&#x2003;" horiz-adv-x="1976" />
<glyph unicode="&#x2004;" horiz-adv-x="658" />
<glyph unicode="&#x2005;" horiz-adv-x="494" />
<glyph unicode="&#x2006;" horiz-adv-x="329" />
<glyph unicode="&#x2007;" horiz-adv-x="329" />
<glyph unicode="&#x2008;" horiz-adv-x="247" />
<glyph unicode="&#x2009;" horiz-adv-x="395" />
<glyph unicode="&#x200a;" horiz-adv-x="109" />
<glyph unicode="&#x2010;" d="M217 512q0 27 19 49q20 23 53 23h581q36 0 52 -23q18 -21 18 -49t-18 -49q-16 -23 -52 -23h-581q-33 0 -53 23q-19 22 -19 49z" />
<glyph unicode="&#x2011;" d="M217 512q0 27 19 49q20 23 53 23h581q36 0 52 -23q18 -21 18 -49t-18 -49q-16 -23 -52 -23h-581q-33 0 -53 23q-19 22 -19 49z" />
<glyph unicode="&#x2012;" d="M217 512q0 27 19 49q20 23 53 23h581q36 0 52 -23q18 -21 18 -49t-18 -49q-16 -23 -52 -23h-581q-33 0 -53 23q-19 22 -19 49z" />
<glyph unicode="&#x2013;" d="M176 512q0 27 19 49q20 23 53 23h663q36 0 52 -23q18 -21 18 -49t-18 -49q-16 -23 -52 -23h-663q-33 0 -53 23q-19 22 -19 49z" />
<glyph unicode="&#x2014;" d="M-72 512q0 29 21.5 50.5t50.5 21.5h1159q29 0 50.5 -21.5t21.5 -50.5t-21.5 -50.5t-50.5 -21.5h-1159q-29 0 -50.5 21.5t-21.5 50.5z" />
<glyph unicode="&#x2018;" d="M408 942v162l254 416l79 -39l-176 -377q63 -3 107.5 -49.5t44.5 -112.5q0 -67 -48 -114.5t-108 -47.5q-64 0 -108.5 47.5t-44.5 114.5z" />
<glyph unicode="&#x2019;" d="M408 819l176 377q-63 3 -107.5 49.5t-44.5 112.5q0 67 48 114.5t108 47.5q64 0 108.5 -47.5t44.5 -114.5v-162l-254 -416z" />
<glyph unicode="&#x201c;" d="M217 936v162l254 415l80 -38l-176 -377q63 -3 107 -49.5t44 -112.5q0 -67 -47.5 -114.5t-107.5 -47.5q-64 0 -109 48t-45 114zM623 936v162l254 415l79 -38l-176 -377q63 -3 107.5 -49.5t44.5 -112.5q0 -67 -48 -114.5t-108 -47.5q-64 0 -108.5 47.5t-44.5 114.5z" />
<glyph unicode="&#x201d;" d="M203 813l176 377q-63 3 -107.5 49.5t-44.5 112.5q0 67 48 114t108 47q64 0 109 -47.5t45 -113.5v-162l-254 -416zM608 813l176 377q-63 3 -107 49.5t-44 112.5q0 67 47.5 114t107.5 47q64 0 109 -47.5t45 -113.5v-162l-254 -416z" />
<glyph unicode="&#x2022;" d="M272 690q0 134 93.5 227t214.5 93q125 0 216 -96t91 -224q0 -134 -93.5 -227.5t-213.5 -93.5q-87 0 -159 48t-110.5 121t-38.5 152z" />
<glyph unicode="&#x202f;" horiz-adv-x="395" />
<glyph unicode="&#x205f;" horiz-adv-x="494" />
<glyph unicode="&#x20ac;" d="M10 621q0 33 22 55t56 22h80v117h-80q-33 0 -55.5 22.5t-22.5 55.5q0 34 22 57t56 23h115q84 248 268 394t434 146h166q33 0 55.5 -22t22.5 -55t-22.5 -56.5t-55.5 -23.5h-166q-183 0 -318.5 -100t-217.5 -283h575q34 0 56 -23t22 -57q0 -33 -22.5 -55.5t-55.5 -22.5 h-618v-117h618q33 0 55.5 -22t22.5 -55q0 -34 -22 -57t-56 -23h-575q78 -183 214 -283t322 -100h166q36 0 57 -24t21 -56q0 -33 -22.5 -55.5t-55.5 -22.5h-166q-249 0 -434 146t-268 395h-115q-34 0 -56 23t-22 57z" />
<glyph unicode="&#x2122;" d="M10 1456q0 34 23 43q20 10 33 10h438q23 0 39 -16t16 -39q0 -22 -16 -41q-16 -16 -39 -16h-164v-506q0 -23 -16 -39t-39 -16t-39 16q-19 16 -19 39v506h-161q-30 0 -43 22q-13 23 -13 37zM633 891v563q0 23 16 39t41 16q37 0 49 -30l152 -338l151 338q15 30 52 30 q23 0 39 -16t16 -39v-563q0 -23 -16 -39t-39 -16t-39 16q-17 17 -17 39v317l-96 -198q-14 -33 -51 -33q-18 0 -31 8q-8 5 -18 25l-97 198v-317q0 -23 -16 -39t-39 -16q-25 0 -41 16t-16 39z" />
<glyph unicode="&#x25fc;" horiz-adv-x="1013" d="M0 0v1014h1014v-1014h-1014z" />
</font>
</defs>
</svg>
