<?xml version="1.0" standalone="no" encoding="utf-8"?>
<!DOCTYPE svg PUBLIC "-//W3C//DTD SVG 1.1//EN" "http://www.w3.org/Graphics/SVG/1.1/DTD/svg11.dtd">
<svg version="1.1" id="Layer_2" width="100px" height="100px" viewBox="0 0 100 100" >
   <defs>
    <g id="ctc-logo">
    	<polygon points="73.3,77.2 49.7,100.7 49.7,100.7 49.7,100.7 -0.5,50.5 -0.5,50.5 -0.5,50.5 49.7,0.3 49.7,0.3 49.7,0.3 100,50.5 
    		100,50.5 100,50.5 76.4,74.1 70,67.7 93.6,44.1 93.6,56.9 43.4,6.7 56.1,6.7 5.9,56.9 5.9,44.1 56.1,94.3 43.4,94.3 66.9,70.8 	"/>
    	<polygon points="38.9,42.7 24.7,56.8 24.7,44.2 56,75.6 43.5,75.6 74.8,44.2 74.8,56.8 43.4,25.5 56,25.4 41.9,39.6 35.6,33.3 
    		49.7,19.2 49.7,19.2 49.7,19.2 81.1,50.5 81.1,50.5 81.1,50.5 49.8,81.9 49.8,81.9 49.8,81.9 18.4,50.5 18.4,50.5 18.4,50.5 
    		32.6,36.4 	"/>
    </g>
  </defs>
</svg>
